<mxfile host="65bd71144e">
    <diagram name="Page-1" id="OmZbpm3Hr3BTn36pIm1w">
        <mxGraphModel dx="751" dy="572" grid="1" gridSize="25" guides="1" tooltips="1" connect="1" arrows="1" fold="1" page="1" pageScale="1" pageWidth="1600" pageHeight="900" math="1" shadow="0">
            <root>
                <mxCell id="0"/>
                <mxCell id="1" parent="0"/>
                <mxCell id="i0nDDmhB8F7UDyZsJITb-47" style="edgeStyle=orthogonalEdgeStyle;rounded=0;orthogonalLoop=1;jettySize=auto;html=1;entryX=0;entryY=0.5;entryDx=0;entryDy=0;fontSize=18;" parent="1" source="i0nDDmhB8F7UDyZsJITb-44" target="i0nDDmhB8F7UDyZsJITb-45" edge="1">
                    <mxGeometry relative="1" as="geometry"/>
                </mxCell>
                <mxCell id="17" style="edgeStyle=none;html=1;exitX=1;exitY=0.5;exitDx=0;exitDy=0;entryX=0;entryY=0.5;entryDx=0;entryDy=0;strokeColor=default;endArrow=none;endFill=0;fontSize=18;" parent="1" source="i0nDDmhB8F7UDyZsJITb-28" target="i0nDDmhB8F7UDyZsJITb-44" edge="1">
                    <mxGeometry relative="1" as="geometry"/>
                </mxCell>
                <mxCell id="i0nDDmhB8F7UDyZsJITb-28" value="Directions `hat(r)_(ij)`" style="rounded=1;whiteSpace=wrap;html=1;fontSize=18;" parent="1" vertex="1">
                    <mxGeometry x="52.31" y="384" width="120" height="25" as="geometry"/>
                </mxCell>
                <mxCell id="i0nDDmhB8F7UDyZsJITb-37" style="edgeStyle=orthogonalEdgeStyle;rounded=0;orthogonalLoop=1;jettySize=auto;html=1;entryX=0;entryY=0.5;entryDx=0;entryDy=0;startArrow=none;fontSize=18;" parent="1" source="i0nDDmhB8F7UDyZsJITb-41" target="i0nDDmhB8F7UDyZsJITb-39" edge="1">
                    <mxGeometry relative="1" as="geometry">
                        <mxPoint x="249.99999999999977" y="499.5" as="targetPoint"/>
                    </mxGeometry>
                </mxCell>
                <mxCell id="i0nDDmhB8F7UDyZsJITb-29" value="Distances `r_(ij)`" style="rounded=1;whiteSpace=wrap;html=1;fontSize=18;" parent="1" vertex="1">
                    <mxGeometry x="52.31" y="439.5" width="120" height="25" as="geometry"/>
                </mxCell>
                <mxCell id="i0nDDmhB8F7UDyZsJITb-32" value="Message Passing" style="text;strokeColor=none;fillColor=none;html=1;fontSize=32;fontStyle=1;verticalAlign=middle;align=center;" parent="1" vertex="1">
                    <mxGeometry x="111.99999999999999" y="322" width="100" height="40" as="geometry"/>
                </mxCell>
                <mxCell id="i0nDDmhB8F7UDyZsJITb-78" style="edgeStyle=orthogonalEdgeStyle;rounded=0;orthogonalLoop=1;jettySize=auto;html=1;exitX=1;exitY=0.5;exitDx=0;exitDy=0;entryX=0;entryY=0.5;entryDx=0;entryDy=0;fontSize=18;" parent="1" source="i0nDDmhB8F7UDyZsJITb-39" target="6" edge="1">
                    <mxGeometry relative="1" as="geometry">
                        <mxPoint x="641" y="453.52941176470586" as="targetPoint"/>
                    </mxGeometry>
                </mxCell>
                <mxCell id="i0nDDmhB8F7UDyZsJITb-39" value="Embedding `E_(ij)^E`" style="rounded=1;whiteSpace=wrap;html=1;fontSize=18;" parent="1" vertex="1">
                    <mxGeometry x="372.5" y="433" width="175" height="37" as="geometry"/>
                </mxCell>
                <mxCell id="i0nDDmhB8F7UDyZsJITb-74" style="edgeStyle=orthogonalEdgeStyle;rounded=0;orthogonalLoop=1;jettySize=auto;html=1;exitX=1;exitY=0.5;exitDx=0;exitDy=0;entryX=0.5;entryY=0;entryDx=0;entryDy=0;fontSize=18;" parent="1" source="i0nDDmhB8F7UDyZsJITb-45" target="i0nDDmhB8F7UDyZsJITb-87" edge="1">
                    <mxGeometry relative="1" as="geometry">
                        <mxPoint x="549.9999999999998" y="537" as="targetPoint"/>
                        <Array as="points">
                            <mxPoint x="950" y="394"/>
                        </Array>
                    </mxGeometry>
                </mxCell>
                <mxCell id="i0nDDmhB8F7UDyZsJITb-45" value="Edge Tensors `T_(ij)`" style="rounded=1;whiteSpace=wrap;html=1;fontSize=18;" parent="1" vertex="1">
                    <mxGeometry x="372.5" y="381.5" width="175" height="25" as="geometry"/>
                </mxCell>
                <mxCell id="i0nDDmhB8F7UDyZsJITb-44" value="&lt;div style=&quot;font-size: 18px;&quot;&gt;Spherical Harmonics `Y^L`&lt;/div&gt;" style="rounded=1;whiteSpace=wrap;html=1;fontStyle=0;fontSize=18;" parent="1" vertex="1">
                    <mxGeometry x="200" y="369" width="150" height="56" as="geometry"/>
                </mxCell>
                <mxCell id="i0nDDmhB8F7UDyZsJITb-52" value="Source Features `z_i`" style="rounded=1;whiteSpace=wrap;html=1;fontSize=18;" parent="1" vertex="1">
                    <mxGeometry x="54.64" y="512" width="175" height="25" as="geometry"/>
                </mxCell>
                <mxCell id="97" value="" style="edgeStyle=none;rounded=1;html=1;fontSize=18;" parent="1" source="i0nDDmhB8F7UDyZsJITb-72" target="96" edge="1">
                    <mxGeometry relative="1" as="geometry"/>
                </mxCell>
                <mxCell id="i0nDDmhB8F7UDyZsJITb-72" value="Messages `M_(ij)`" style="rounded=1;whiteSpace=wrap;html=1;fontSize=18;" parent="1" vertex="1">
                    <mxGeometry x="975" y="414" width="175" height="51.5" as="geometry"/>
                </mxCell>
                <mxCell id="i0nDDmhB8F7UDyZsJITb-86" style="edgeStyle=orthogonalEdgeStyle;rounded=0;orthogonalLoop=1;jettySize=auto;html=1;entryX=0;entryY=0.5;entryDx=0;entryDy=0;fontSize=18;" parent="1" source="i0nDDmhB8F7UDyZsJITb-76" target="20" edge="1">
                    <mxGeometry relative="1" as="geometry">
                        <mxPoint x="850" y="462" as="targetPoint"/>
                    </mxGeometry>
                </mxCell>
                <mxCell id="i0nDDmhB8F7UDyZsJITb-76" value="" style="shape=sumEllipse;sketch=0;fillStyle=solid;size=6;pointerEvents=1;fillColor=none;resizable=0;rotatable=0;snapToPoint=1;perimeter=ellipsePerimeter;whiteSpace=wrap;html=1;backgroundOutline=1;fontSize=18;" parent="1" vertex="1">
                    <mxGeometry x="727.5599999999997" y="442" width="20" height="20" as="geometry"/>
                </mxCell>
                <mxCell id="i0nDDmhB8F7UDyZsJITb-85" value="" style="edgeStyle=orthogonalEdgeStyle;rounded=0;orthogonalLoop=1;jettySize=auto;html=1;entryX=0.5;entryY=1;entryDx=0;entryDy=0;exitX=1;exitY=0.5;exitDx=0;exitDy=0;fontSize=18;" parent="1" source="i0nDDmhB8F7UDyZsJITb-52" target="i0nDDmhB8F7UDyZsJITb-87" edge="1">
                    <mxGeometry relative="1" as="geometry">
                        <mxPoint x="675" y="562" as="targetPoint"/>
                        <Array as="points">
                            <mxPoint x="950" y="525"/>
                        </Array>
                        <mxPoint x="459.9411764705883" y="652.2352941176471" as="sourcePoint"/>
                    </mxGeometry>
                </mxCell>
                <mxCell id="102" value="" style="edgeStyle=none;html=1;fontSize=18;" edge="1" parent="1" source="i0nDDmhB8F7UDyZsJITb-87" target="i0nDDmhB8F7UDyZsJITb-72">
                    <mxGeometry relative="1" as="geometry"/>
                </mxCell>
                <mxCell id="i0nDDmhB8F7UDyZsJITb-87" value="" style="shape=sumEllipse;sketch=0;fillStyle=solid;size=6;pointerEvents=1;fillColor=none;resizable=0;rotatable=0;snapToPoint=1;perimeter=ellipsePerimeter;whiteSpace=wrap;html=1;backgroundOutline=1;fontSize=18;" parent="1" vertex="1">
                    <mxGeometry x="939.9999999999998" y="429" width="20" height="20" as="geometry"/>
                </mxCell>
                <mxCell id="2" value="" style="edgeStyle=orthogonalEdgeStyle;rounded=0;orthogonalLoop=1;jettySize=auto;html=1;entryX=0;entryY=0.5;entryDx=0;entryDy=0;endArrow=none;fontSize=18;" parent="1" source="i0nDDmhB8F7UDyZsJITb-29" target="i0nDDmhB8F7UDyZsJITb-41" edge="1">
                    <mxGeometry relative="1" as="geometry">
                        <mxPoint x="275" y="499.5" as="targetPoint"/>
                        <mxPoint x="140" y="424.4705882352944" as="sourcePoint"/>
                    </mxGeometry>
                </mxCell>
                <mxCell id="i0nDDmhB8F7UDyZsJITb-41" value="Bessel Basis" style="rounded=1;whiteSpace=wrap;html=1;fillColor=#0050ef;fontColor=#ffffff;strokeColor=#001DBC;fontStyle=0;fontSize=18;" parent="1" vertex="1">
                    <mxGeometry x="222.5" y="429" width="92.5" height="46" as="geometry"/>
                </mxCell>
                <mxCell id="9" style="edgeStyle=none;html=1;fontSize=18;entryX=0;entryY=0.5;entryDx=0;entryDy=0;" parent="1" source="6" edge="1" target="i0nDDmhB8F7UDyZsJITb-76">
                    <mxGeometry relative="1" as="geometry">
                        <mxPoint x="725" y="441" as="targetPoint"/>
                    </mxGeometry>
                </mxCell>
                <mxCell id="6" value="Smooth Cutoff" style="rounded=1;whiteSpace=wrap;html=1;fillColor=#0050ef;fontColor=#ffffff;strokeColor=#001DBC;fontStyle=0;fontSize=18;" parent="1" vertex="1">
                    <mxGeometry x="599.01" y="432" width="105" height="38" as="geometry"/>
                </mxCell>
                <mxCell id="14" style="edgeStyle=none;html=1;entryX=0.5;entryY=1;entryDx=0;entryDy=0;fontSize=18;" parent="1" source="13" target="i0nDDmhB8F7UDyZsJITb-76" edge="1">
                    <mxGeometry relative="1" as="geometry">
                        <mxPoint x="800" y="462" as="targetPoint"/>
                    </mxGeometry>
                </mxCell>
                <mxCell id="13" value="Kernel Basis" style="rounded=1;whiteSpace=wrap;html=1;fillColor=#0050ef;fontColor=#ffffff;strokeColor=#001DBC;fontStyle=0;fontSize=18;" parent="1" vertex="1">
                    <mxGeometry x="682.49" y="475" width="110.13" height="37" as="geometry"/>
                </mxCell>
                <mxCell id="22" style="edgeStyle=none;html=1;entryX=0;entryY=0.5;entryDx=0;entryDy=0;strokeColor=default;endArrow=classic;endFill=1;fontSize=18;" parent="1" source="20" target="i0nDDmhB8F7UDyZsJITb-87" edge="1">
                    <mxGeometry relative="1" as="geometry"/>
                </mxCell>
                <mxCell id="20" value="Convolution Kernel" style="rounded=1;whiteSpace=wrap;html=1;fontStyle=0;fontSize=18;" parent="1" vertex="1">
                    <mxGeometry x="800" y="410" width="125" height="59" as="geometry"/>
                </mxCell>
                <mxCell id="36" value="" style="edgeStyle=none;html=1;strokeColor=default;fontSize=18;endArrow=classic;endFill=1;" parent="1" source="31" target="24" edge="1">
                    <mxGeometry relative="1" as="geometry"/>
                </mxCell>
                <mxCell id="31" value="Sphere Projection" style="rounded=1;whiteSpace=wrap;html=1;fontSize=18;" parent="1" vertex="1">
                    <mxGeometry x="285" y="722.5" width="120" height="60" as="geometry"/>
                </mxCell>
                <mxCell id="33" value="" style="group;fontSize=18;" parent="1" vertex="1" connectable="0">
                    <mxGeometry x="471.12" y="635" width="532.88" height="205" as="geometry"/>
                </mxCell>
                <mxCell id="24" value="" style="shape=image;verticalLabelPosition=bottom;labelBackgroundColor=default;verticalAlign=top;aspect=fixed;imageAspect=0;image=data:image/png,iVBORw0KGgoAAAANSUhEUgAAARQAAAEeCAYAAABL6+ofAAAABHNCSVQICAgIfAhkiAAAABl0RVh0U29mdHdhcmUAZ25vbWUtc2NyZWVuc2hvdO8Dvz4AAAAtdEVYdENyZWF0aW9uIFRpbWUATW9uIDE0IE9jdCAyMDI0IDA2OjE4OjM2IFBNIEVEVFfRoasAACAASURBVHic7L158GVJdd/5zferopveAIEQTbcACURDQwOCFt2AhGyhxUa2JWPkNTzySONlJjzjRROOmHCMl4iJsa2x/3BYMRHjGI8nrJmxJA/DImvBkpAQIGyxCCQLCZpVvVdXL9XVtfx+9W6e+SPz5Fny5H3v/er9aul+2f2rd2/umTfzc885mffeRESEndu5ndu5LbjF5a7Azu3czj193A4oO7dzO7c1twPKzu3czm3N7YCyczu3c1tzO6Ds3M7t3NbcDig7t3M7tzW3A8rO7dzObc3tgLJzO7dzW3M7oOzczu3c1twOKDu3czu3NbcDys7t3M5tze2AsnM7t3Nbczug7NzO7dzW3A4oO7dzO7c1twPKzu3czm3N7YCyczu3c1tzO6Ds3M7t3NbcDig7t3M7tzW3A8rO7dzObc3tgLJzO7dzW3M7oOzczu3c1twOKDu3czu3NbcDys7t3M5tzR273BXYuaeXO7P/OB578gSOX3MMB8vz2F+ew8G0jwUdxze/8A5cc+zZl7uKO3eELu0+9LVzI3du/zGcPvsIgISz+4/h3MHjOJjOYcIBTp05iUwJ55dPICPh1NlyvthbICMhI4EI5ZjK+fG9Z+O5134Dvun5t+P2m9+0g8vT0O2A8gxyy+kszp49CcJ5nDl7GsvpCeR0gFOnHsL5C4/h2LOO44knTwDHLuD8/hksl4RjzzqOCQABICRkhgQSiBIy+wP13B0TQFhUv5KW83nRDS/Fy59/O1774jfi2mPXXs6u2bktuR1QrnJ3cPAoTp9+CNc86zj2Dx7FuXOPYO/YAgcHj+KpM49gOZ0DYR9PnT0JArDY2wMByBDpAe0cDRQEAUeBQvUzEInClGSipBOCAkrNg4+XU8ZLvu7l+JYXvAp3fMPrd3C5it0OKFeYy9NZ5Okszp89AWAf++cfwTSdw7R8FDmfw9mzT2KBU1guz2H/4CmlYsjEbhMcLFVY/6nzh5EsIphoqaOFR2EbwiQDLl7CS577Mtz2gtvw+he9bgeXq8ztgHKZ3YX9R/DkQz+Lc099HhcOTqoJXgFABL5AVCdsBwEkUJJwQKkWidNsCyYMgRUw8WWQqDpNdSJgIvarabPAKhNw6/W34Htvewde8fyXXZoLsnMX5XZAuUzuYP8pnLzvvTjz2K9gb2+xAiQA2oSVyUfJSh7lSha4aFsFGlzEn/MawYSlBZEgRM0RW0ggaZAFAml/Z0PR0Gn5aimopltm4Jue+1Lc/vXfgrtueT2uv/a6S3GJdu4QbgeUy+BOPvBrOPvoz+HCwckGCAYCqXOgTGrAwiYDFSbJSi/t14IGLFVgofJXqkcnXWgVRa/UwIICCVNW0FghmayEyRBOFSzThGO4Bt/9LW/FH/6mb8N1x3fq0JXmdkC5hO7kgx/GEw++DzQ9pqQLODDUX+JznvgWBITU8hWI2DD+bVJHAljSKeqPrL4QAVNLjwoKBwLAQKAdK3Vo2hAmVg2S+k9VWtGrRZkSppwxZcK1e9fijhe+Enff8hq85uaXH8HV2rnDuB1QLoG7sH8S93/pX+LgzOcBr6bUOBYk2r6h1CAoABlpxkolUMdamuH8JyJMBJNGqzoRKFbDBMi0EPBpECiYWOhYmEjeSuIhKyURgGkiLKdc/KaMV73wm/AnbvsOvPrrX3Jk13Dn1nM7oByhO3f2BB6+773YP/UbABKQ1gMJYEGipRORXJQtxQBGpBJSdhYuY5lJAYrjLgQ83cqLhYmRJNS+k25figeOU51WwcSWU+tI1dZDwETANE1NkslI+LprbsL3vfxOvP2lr8UNOzvLZXE7oByRe/TER3DyvveCpseAJHaQdUAioBApBQYaAqas/NH8ROrgMjJRmaxGWimrQFKWnsjJlCGrOoHEUGHSytbSBQQ+U6urgpQDzKRgUoCk98akBpWSJ+HCRJiyWnXKCdcsjuP7X3UX3vmKN+L6Z+3sLJfS7YCyZXfu7Ak89vAHcOqRj2CRnISg4nmQCAgsTMgAw0klgJFMNExaOiJMFSai+qQGB7G5OOkipR4gUKtBF22E7VeMyhKylpKsBEMkYGt1IGDKVQWi1P44/Lbn3ow/e8e343U3v3Tbl3rnArcDyhbdow9/BI8+9H5MByebrQRYDRILAqhJjlmpBMrPgiiJVFJVnNzK1KpMVcOMRKIkk6Qlj8MbYde3mywUZJwEQxY+pMOrCrRcZmNMbtIWAa994Uvwzpe9Fm/75ldv85LvnHM7oGzBnTt7AiceeD+eeuxjRbtRKg47vfzLvz0IFCDWkErGKk4ByeQmoNnpmqqkQhoc1u5StuVXtcjZUIqqs2h18Uu+kapjjb4KPKGqIxKMAFLZk0inr/XJBSqytJ0w5ZpfLvlfuziOH3jVG/Enb38TbnjWNVsaATvHbgeUi3QnH/4ITtxfbCVJSSWAQASIQWINrvNSiWxSs1KJXyrOmZCJ2o5YrTKJLcRLOwyShQpT5WqphRadxBKCQB3P7ao1qk6TVCJVx7WZUG0nqap1qUA0F8kMTTpRdhcSuFx//Bp8z8tfgx945R24+TnP28pY2LkdUA7tzp49gRP3vx+nH/8YFkoqAXqQeNXHSiQwxlOJK6BgqQSwMLEqTjW6kqzi8IN/DQAqLzupFUCUmtOpQFg0wPQT3AEDAVAMKNRqkoGM5JEzlXgZdTWH2gqP/NZ8sqo3Acspg9ICwAJUJSkNl2YczoQ7nn8zfvjOt+ENN9968QPjGe52QDmEe+Thj+DkQx/AdPAIUpIVE3YeICOQ8EQt6b2/VlWU9IKxiuO30kOf11+YpVgNC5EGRO2pE8+oRLzMrJanV6g6kXQykazgTDkJDFn9YUmFLFjbsjL/oj9nYFyYMvjRA2APSIsWl1Q+VMt5/Ytuxfd+821420u/GTc9e/eulsO4HVA2cGfPnsAjD/0sTp38KPYWANsgAGcvgYaJB0Gs3nBcO7mtv1dxeBWHpZJoT4reSq8npZY+NGAACxoyKlFqAAGs7aWXOqoEAYaAggjbP0irToGxNvf9YVQrD5Jma6lAy4Qpk4ADCcACKS0cUDRYgOv3juOHXvcmvPu1r8cN1+zsLJu4HVDWdCeqVJIPTgIIjK7mN5nz1VJJcr8Mk141kolDouZgc5gUeNjl2ZZOSUSs5ljJyUkGQNsLYne69qrOaGu9WdlhiJG0WUsr3rbS6s9tV/7TlKGlGs63qKiL0scOKJRL268/fg3+yCtfjbfe8o2482UvO/zgeQa5HVBWuLNnT+BL9/zvmPbvwbEkEw2Yhwj/zoEEyj934db+YYATLAd3xld1V7cqh1WpRjBpwAjAAqSyfX8SoLW3sjVw6Dy0OiTA0ZARYMjEt6qOSCOtLQwIDx0NGAKWtZ5EReqBigsAKe0B1c4CL7Hk8vv6F74If/e7vxsvfu5zNx1Czyi3A8qM+4M/+EU88tAHcDydR0IkkaTArzi9XV6HbSqVNNtHlUrY1qDBIfkmC5m2z+PwMPHHQN2+n+Hy42XcRatHqMao5d62YuTimCVhaFXHGnhZJRKYKliR9AkRcGGZRULhvmlSSTlOaYFFWnRAASVQJlx37Dj+7jvege/8lldsPpieIW4HlMCdOXsCX7znXzWpBIglk9GxBwUQSyXzMLHLwUTFHsCA0CoO1Lnep2FhYsuMVmn4fASTXOuQM6qh1q8SqXzSYqjqmK35NK/qaAjpTW7shwYZ8TcQ4jrkIlE1KY4llVzzyPXa5AKWlKo6VIECAigTpinjR970Jvzl73jbynH0THS7z2g49+Uv/3848fDP4tpjCXuLZEAA2GM4fz1BTZoZqaSE22d9RiqOSCVWxWFVQuAkYNFA2BgmDVrF8LvMJJOYoaKlCJMnubyVDaOCAyp+s0uR7kclSXjVTgG4OAtnWXVLLS5fqWbsJh3OF6TUHdNUUqc9JEhei8UC//qTn8bp/X387e/+rsFoeOa6nYRS3fn9k/jMZ/8RjuHxIpXoTWpBD3nIyMSIpJJAIkEklfiJQ23vRWwvsfaXMUystLI2TCg1yWhq9RAJwm/jl/onWf1R+cnKjDUGD5/VAUDZ7mVpdhRy/UAIpBM5b08pT1O3XNwARap/Mp8DoIRFWiBh0S7UlDPueOEL8c/+1A/ixmt3K0HsdkAB8NWvvQ8PPPB+XHts0faVaEcAEHSTSBm9eiPh60klXsXJahXHSAtAm0Td6w2UNGCXhg8Hk6LiZDFoKphIXRKs2iPltjyTXvnxQLGvJeif1VHlqqViKxkV1UQbdA2geGWnxl9OuRpoy7VjdQcqbrOfIAFGHUpY1NWhZSa84Lrr8C//zLtwy/N2xlrgGQ6U8/sn8Vuf/Uc4hiew53a7ds51k4YEn3M0K61YCcTvXbESRpEICDAqDv9K/mpJuKXTYJiHiX7+xUJBTV7ew6HL1DAhtZpEqBKdsmvAbuOPXkswK52oc/Pr7CS9dKJXf5wUwuHVFmKkE6AtF3uDrEgq+kKyBLbAtXt7+Gc/+E68+WUvGY+fZ4h7xgLlK197Px64//249ngKpZLIcVeNQKLD1pVKzLFScXhy908er4KJlYg2gQlP2rJ3g+SO72HS0kUAE+C0VyAYyUQDQ/KKpRNVBmFGOlH7beakE2hjrDLS1kI5LTKUvwNKlVb4WSJCAtICUwZ+7Dvvxn9x951rjaWnq3vGGWXP75/Epz7zj3E8PY5rjydrK1npeAm3uEgqaVII5qWS3lBaVBwxbsrkK2UEKs5GMEkdXDxMpgzknIu9ZEOY5KB9TV0j7S/9xX0KKGhyHUni2vBeOtF5tfTuyrG/uAXKR0X6iL5uQRQLqSkjZ8I/+dBv4MlzB/jrf/itYbpngntGAeUrX3sf7rv/A7jmWEJKZaBHthFxHFYHs5NkeqnEg6SkjWDSJA8SgyfgVnFaOW5/CWTSCCQ8TFIHuqGaw/aSKStQWdVkXjJRcajd1K29xdlvrEri4Kt+9aqOvVSuTS1cqy1JpbF2FABYLBaYptz6OLq20L/Oz4AlFTvOv/joJzBRxt/4rm/HM9E9I4Bybv8kfut3fhxpeRLP2kOTBHpH3T2p+Ehkk858ymIslQAykax0YVUccjAR8X4glSgpQsMsgkl2MBHjL+rekqzSbgiTthTsJBINvVZ2Dw8rnag45KWXZPMIASN5m753cfk3pQWoWmVJLpQk7NL2+SlmAQD+xUc/CaKEv/mOZ95elac9UL70tQ/ggQfej2PIxWA/kEpkl4L2TCD0I8feSalBRyZH//oCcycnQqZsJkB2UDgMTKL9KSOYEOqLnrPd42IhoMon2YDGPdZJCICSejxESNVH9U0AmH5PiZcg5qUTGL85f7nO8H6RutOBJTn/8gY8EPDPf/0TuOU5N+GH7ryjz+dp7J62QDm3fxKf+u0fBx2cwCKV1Qo/IPSQ6RFjXVnJ4Lh8x7Qw8VgqY9yqI81WAjsJ2yoO9J3dqwkeGoeECQFLqjtvdfwBeHRZ3H5tj9ESC/icBEbFr/4aVU6DVsARSyc6zQgwfVg5r7t7K0xyzsqP2vM6KS34os0NBWO3sUAEUpNoE37sfb+EV9/8Qrz2lm+Yze/p5J6Wqzz3fPX9uPe+92GPpvLyI+XWXNCBH1RtYPOrE9k/JRNfK02EZF5Snd1ANEu1zX8dmHh7SQwTb1hloE1U3mxmVK3RnhROZyBm1aF+ubcHjbaxgF97QKm+itLuIdEP/5kNarp/SC1R19WWJmll1DfXoexPIVnN8UvF4DJzbv6pvuIgMdSUzsb583eNsn7Kuj7flOub+Cci3Hz99fiZH303XvL8Z8Y+lacVUM6eP4nf/Mw/wfLgBBIIeyCzJCzTduySk0KMGJ76XLyK4z/khfbMS43PkyBZCaOEyV09q/w3h4mVLGSC8q5XdPFlRcbZY2geJgaMZi+Jfcamg4qWyvh7QA16CkgkalbbYNdgUx9S5EndwKH6Q29Uq+W2Y+WXiUCTpOeLsuCt9yp+e/UCBnCh+jqHXN7Gf/ONN+A9P/ouvOQFX7dy/F3t7mkDlN//yvvwlXvfjwWV4b0AYVHp0L+9ZCR/QC0jyy8gkojk4iUTnV5PemqTkUsy3yVOMsEsTLwt4mJgAnnZUCTJGGOrlQb0W9e0v9mjAjgYKAgyJFUbW35J+sSU3YCBJkk1eJD8NYmGVD+olR39ioI56YTqcZ6yBYoCT0LZft/AgWTqwvCbqEg0E6FtDlxOhFe/4Hn40N/+YTzd3VUPlP39p/DhT/9DHBycLFIJAyX1mnB8rhDRwaQ4vVzc9HO/hBxIMKLiqImjVSYFkxysGJnXCxwSJlkN7DmY2D0pcm5fcRDDRKSJZMrQkgZMfVVdWTrJJJMzy3tj/a5Y+3oC2zfFJhLsZ+nAggYT7UdEyBPBb7cvF5OvadnIhvo0dVNzFAT5tQoM8WkiLJeEv/KW1+F/+sGn9wOFV71R9gv3/hLO7ReYLIiQq3SSFT7a3CcaQAXNOg8AbGIVKz6pmFRBYOOom15Nog21ZCZrK8FPVpRy5PzwMOEJNuWs9rAks0dEgNBLJgwTOH8LhTFMdBug6suAaFpEreM0ZUwMV4gKBN0mBQF2otqYq2klkTk/dZxQ9icxRLQkwz/FmDuh9GoBi7lVmfyLiTaV/ZP4337jt3HTtdfg7/yRp+9y8lUNlPP7T+ErD/4Kcqa6kkNIRHBjBkSkbCPizA6TOsN75EgEkSrsxOfMiClRywSrPO1uDIhAqCZqYgDZ1SOZkGryNr8ZyYSlEqKBKsMTVIEqqTu9k5QMTFq5FiYWcAF8lESBWoeM+vRvhoVXm/hOUtT1J6kjTBoE/u6aaj8jsXC6mDoG4AQQZUyUK1QYLmjL0EUYpaIuLco1+Se//Anc9Kzj+Gvf9WY8Hd1VDZTPffUD2L9wBnsgM1H57ofmI3p1cRRvPQjiNYiocDPIlfQDdWgmHpelQARUOKTiH8PElmENuCOY8IuZ1YTXAFIw0ZvooocKKUWb2FwaBRopw8Kk+as4vDO3qTA6rQHTnHQidbLSib+Oq6UTdqneBEYRdB7NVpMJRBMyJiTs1e8bsf1OdO+USu5/999/HK+95YX49tteFtTg6naLy12Bw7r7T3wO99z3S/C7Xinxvg43qaHHR50IlMyxvsOxmpCR2tva5a3tHF4lC/XHtoCJypMizQ5R68kTiL8zw5+OIHWsjY4SR+2qJaXCQABWJukaMMEYJn5yQ8VjGxCxWuLy9o8BtGuiJIpSXnkAUT5yLtAQY6tKr+tgpBN9PSWuL9c479dJJ+4GpPL1ZXhIUm3XcrnENC2Rcy65paJKLdQehr/4r38ef3DyCTzd3FULlN/+yvu7Ow4A5PqyZIaB/AkoDGTU3bBPZ89tOgeRakgUkNilzAYZgqgiEGgIrCxASj6kIENqEhZHUB8M57Y4mIz2jWho2If4lGSi4vtNZPpdKG0Vp4WnHiaZ2tPM5hqQMrY2daVKbg4wgJVOrNTQSyfAQDohJ4TUCjEAJKIeJ6JKofaHTs/epZ0TLiyXyJlqvNSg8uT+BfyJn3jP0w4qVyVQvvbwp/Ho6XsAWDAg6TuqevgNUFAQuAA9eCZ37u9G7bxNApGImuTi7rQslTRgqDgaFloCstKJO4bAhUFS3jerJQ4rETRVZgANu5oj8SJ/WaaN7Sq2LJ745WVN5YVNpICQpBw1IVuYBqiCk7hYOgEULKn30xe1V5nsufW3NyE9FkwfcFuo2ImmaQJlqhbaku7ex5/Cn/jn/w6nzpzryrpa3VUHlPP7Z/CJz//bzl8bXcPBrWDS4JHKBrNICvF5ARFEZiQZddc1Ugs0LBREsoCnhcNJJQo4fKdf1kfnQ1UIMjkaDHSfkMBE76tpk4NVQk5DDk7qbi1w0PtzGBbVQNzqaWGi7Sb9Nnpdt3a1Q+nEwMVARF1QyLFJSja8bWYz/aiiuHK6vODrVq/jlE1r7n3iLP76v/kgni7uqgPKf/7qL+HMwWOdf7vLukE2B5gGALU9fgyRXoWKpB65WyVM0OpPAAXONwfqDyxMRLopTwZP01Q/ZyFSywTUbegjaQGAO/cSiLFpODBZGCnJQvnbPqvgywI9/9xP39eyEVB+PYj46lrpJJJEQr/2z0A6qWFF9VGSGO8hotQ2J6qsbP56PDnoFGla4vzC734NP/6zH8PTwV1VqzynnnoEv//Ah9q5XBd5CI3vi0TqnuuWjBMguzTV4OQY3d2yldcPGH1uRHxVJ32Hl3M9maqdACRwq5NLtvJzGfyRLyVJJHVHrxUx4PSQYJgYaGh1SAEDqk3B8jD3nbVplNUmXrrWsG7t5zyaRGYBoyWULn4rR1+FWDrpLhL3beDn4yeUdhhvDweowVUGVlC4JOji18P/5Rc+CUwZf+cHvyNOf5W4q0pC+fSX/z0OlmcBuLGQrKQwkhpafOfHg7is6PRSiLbHmEnR8kqhBGMmp5rE2qZi1BsoqSRTkwC0rYWfxWGpROKkTqLhvDVM7KpKb/+A8+eJmo10YA2vsiOY46s35QMqfVIQU/0S7W7l4+D6cTn+evowm66XTpp/BJb6mzSsaSCRqDI6eBK/YpRvfRKB1F2PAPzTX/w0fuHTX/ANvarcVQOUP3j4c/jiQx8vJ2oApOQnhZ7QboWHZBLw3Zf/mmpi4DRnU1HiL+AgpEGjy+FzK8WERlqk3kib7fMsRFQASKwWaLuLtsl446lbHlbqReivIWRgovuitjcTllmt4pAGg7LTqPzaVlKneuj0vV8PC8D7y4XTdhTyfiqtH1+dWmODO4BYj17t6utlA//Gv/kQ/uCRq3fl56oBym999ecC36QGqb3YdpXH3hk1QCYEAAltKv2elUyRRBLd/VU6fYdW4VaqsH8sdUwqDnHdW7g8us/2jpYflA2nQsP2oUBW+jK1tN5uEqlGBXjVSEyuL7gc9nNA8HnqBwwlDp9TnNbBZSiduPHTEUJF5LyRgjCK45IK81JxHVym+AI4iXjq7D7e/U/fg3uvUqhcFUD5vft+Aw+euqcPSGwYlEkO9GDRk3cKJRA2sGn1pPdrE9JJI5F6IxKJqEN6golkYm0SegmaJ5ABTE2nX0FgJDDON0t8PQlzHcAaZDLRBcDWr1ePvN1kmuSdtM1pVY9UfgSVX6/i2BnsINZRYTPphP9C6cTBxQLJ244sIP1KVA+vPo6+axGIi8G9jz6Fd//4e3DqqatvOfmKB8q5/TP49d/9KeuZqsEMkWFxDJacZgDi73rgiRCt7sDBROwTXr0xdXNSibEdaMlF+Tc1KauvCFaAsnTSpCVKBjxlsNt9LuT+oOrC9QAg5SjJRSa26mOqn93I2YHIQQS+L+qF1Be15a/q6PyilZ2R6uP9OE3zdwCJ4nF7I3/2IB8WxNHl8KdN5Zfz4Uc9gPsefQo/9q9+Ka7cFeyueKB89msfwoT9PiCpuzFWg4UTzQMk2OSWrBTSqTZKNLdl9+qNllq0dKFtPp0/2XCt5rR4rT2yK7f82qVq9tMqUfdGNHBe2l7S200KQOuu10y2X9QkNPDgfD0QoAGk+zOZX7S6SVu9Px+zM2MgCJeI/W8kkZg8XT5WDbL2kwG3gjpU6TEBH/ytr+Af/uSHViS6stwVvWz8xFOP4LP3/mrnX1RPprts4S4yR4Lc38sgbg8CuosbGdy4hG5s+MGDfoJFE8nepAQYNo6Xqqxdg7egZ5++xQkmfJLBLDuD63JyQtm1ycfE/qyu6clj29FWfXKuL7iWCSd9kxwQLNT6No8lFit1RDcJH185tytWxoDdR+DtIXxo262jpP4auLw6+4k+iDNtENPV/z9++Xdw07XH8bd+6OpYTr6igfILv/V/Yn95DscANU3LgE/E+0vWAQvHgPHxgwMufORnJ69MZr160eLBDTidhsv3d0KycZr0FQKsYEJLQwDfwYuERe3OV7Z9c5gGS06lEfZ1j3o5t/jx0nXb9eraY5d9bTjQg4O05MJpfHqSP3Pd1OSNjs212+Ai6zLb9WggIh99lE3gya+wloI8NstlIED1/T9//6fwnOuuwY98/5X/yoMrVuX52iOfx4NPfrm/7+hXLJLS0/0EgNg3ivoCWFtItXuo+PqOJINYrToodcVM8hn1JgQB/xqDbHJl1TZQb7jtJRirdrV9KU6FKmGys9Z8qZD9s73rdjCp9hKjlkDFCyDSgKGh62Fhjp2EU9PztbXXZ/CNJSXN6DtI9IImc+HZrx3LA6BTzqCsXpVBJmv1G5TtXCKPEhUGBZ3q8T/9Xx/F577ycJzZFeSuWKB87As/h8We7ezEExoCED04Uf3Lr0wku+mthwcAM3ANQFxexPnxREccN7KtmOVrM9EtIPQTw90OUgYRxyX9GADUFne7h0X8BGTNiEzO9tLykbfOyftLyIFQ9aGWRBQQrKqjJ6yV6NjP/vpjDSc/+e25SeNPgngGHlN9i1yWX35As4RNyJT7eoT5xnUaVxAVftReK4rFAv/1P/tZ3Pfwlb2cfEUC5T998VfwwJNfQnfl23b5ejeHvksPpBW3dR3o4bEKIGXiqslm4qs7NHqpRIAWQyaSSoo0UN5ZCpW3Xo2Retg+aOBS5VjDrQdNgUl5qbKWFKgtP/Oksl85dPBWy+12HwowUnVEuoPtF/2rIKH9+DqKSqIkFZcGLX4vnVCuz0Ytp/qMVG7fd+b2mxuW2mTHUss0Tab8CHZahEkOkInsDlpTR0jg/Y8+hZ94z3/CleyuOKCc3T+Dj97z850gmPSk1KJ+56euXVKDdg14RAAxE96siCSXVkDSP2C3gVQCrqd6XwhU+Rx3BUzAaUOwqJUe3VYwbHiTXHmnx7LChK8EyLbfQhI23pqqTktjfv1xfx5OXhUn8d4WhmTOyFXCKK+fzKDyMlsLW5034nOosouReqofTxO1SOIl3TmlbsmjJXBkofKeX/sc7j9xalWqy+auOKD85pd/FUscAGj7J38oYgAAIABJREFUfADASBrm7hhN8jYgYlVnDh5DlYeUuqLytLYUqVun3mjIjKQSLMxdVACjVBuSdkUwkUGfgra59lP0aYoqsdR3l/CH3PVf/56YkaojZVrXqzr9Kw00jNT1VJPYbMmvdUdrg0gP0zRhuRR4NGnCErC7IaE7l3YzVDmd1KNCq/450lnnyi8lBNF47KQipP+Ln/mNcZ6X2V1RQHni7KP42Bd/UV82AFDP6/R2CrSJ4yWHAUgcOLKbnGareUOalUZ0+VYCSKZ8H+Y3uxmbjIYBESIpRo61dKBULw0tbiuSlUI0GKj3b88T8ZKwnug1nB0BkN2wfiOfiuPrTzpffQOA8ZtzFizi3+wf1YCaieRTGIYUfX46Hw0vHx7t29F5tnjKFlM+Ri90tLKJ2mRX/xK1EMjKT3ka/b2/9nu476H+FR5Xgruilo3f9+mfrIZYuXc1CYX4JNgUUhUiolSvROru9N7xQB85c1dS4qu+s8rdK82EWTD4fAxIdHy4gTuECUKYmPguDFCbyFR8wD7hXPzJ5VkO+rxt58Wqzlhisb/c79IvvSHWqz5Vksok5ZqKRbtofcX7tsi53ajmiGnLVPFaNCJQJiSSDQ3eRUvIujKidSZ84nMP4NYXXXlfIrxiJJQvn/gC7jv1ZeVTJ3F79kZfJHuHYD+AJ5mWKJwdw0geweRGcmk4n7GdZKXqo1dllL+HSZvMrR0aHNuBSSkj9dIJ4CQZlZZ0nvrOrF6NoIAxVnVs3a2kMqfqqGsfHLf3+2ZlGF1FCthz3Q9w17GF6/p4dWfQVjdIoe04XNl17ChSTwIS8BM/dWW+kOmKAcoHf++9AETES+Adrk6VMVBxAxxJ7VNJ7aJDha8DDp0nb33fxE7S/PWEgU3nl15N/VSaXpUreTaIbQiT9gwQ90EDi3+AMJr8spTc4gWwQftdreqs5+YMswwTPTbkQnpphvpK9tdBw8ydt7QpmTAdFLogUCAogaalKo1pMREeeOws3veh35kr8bK4KwIoH//Sr+GR0w+or3uSUm/moCJ+ktICw766QKDRgSPyIxlQHSwUsHSYnThWUspYtHC4snooCUzM6xHIQcz1yyYw0ROJ4dBekVDjW4iitVfbZxg2IEkDc60sbMStI51YNcIaYmXHrnEtvuvoII6UIxCEOZd6glxSA5pAJXIw6+pCnLurE1kbiq8vt+0nfurjuNLcZQfK2f0z+NDnf9H0e5FORmrOGCq8EhTBYda/DWT7BwSw0HBSE0sMob16YyYw+fJtmKzARGVZ9c+HHxYmnDYTkPlhvwwYlQbSD34Pi4eSlgz5GjXYcHlO1dnUseogIHNlhWkgAQZSNs7oXPeVysIAL/qNG+COD9EJ9z9yGu/7ld/ePOERussOlA994T/gIJenia0gayeL+I2hMgJGmSw9MAQcXjXiCeKXiq24bso1y9c6TLbr+/yN3Yeg7vZOndPL2GrSRuGHhYnJu4HFqz++7c5vMPkiyHi3rnQi30GSXar62jWY6Pz8ZCV7qP+8vzHGKlCFZUfnGmAqEhtcky/UO50mCH/vL++A0tzjZx/Df/zqR6CZL8tkm0JlDIzo4kd//SP4AgUPErGTKGkGOmyFeqPri4FU0vxEMrB9IOGHgUlxyn/K5QpwG7PsqfBwsGXL5C3H1i5g+pNUuoGqM3LycTUFE50ugkdL24cxeAQUVorkdH5MtLRNFVqh7thE/THUnquw/hQeAsAnf/dB3P/Q41Giy+IuK1B++pP/DzRE2BArW+zXh8oIEh4YsQTTqydiK+lB4mGg03sjLUwZOkypZ3qSDWDSt/1wMOH6oKWvabP6Sp/KGzUs6yeMVX/IuX27vZVa9PUbPxQHk95LJxooHDFoE9eZZDL797bqyGYcuOulbxQyke21haojXB7DxikX2kjIhumt+Z2ZEQk/+f5PjEq75O6yAeWLJ+7BV5/4Sj+s1DIxoGExA5VuF62k6Q2z9i802vrJAmtDsS9yhsnLi+0aVKU9XgIJ2tjibQ8m7DxMuK38lv3S/n51LGeSjWJEFowGHvJdnQZLdXkNiFr7e1UHLk17WFFPZhMJtiDv539h6xEbYy1Muuxb//bFdmWrSMbgqsIS3HM9iIHjVZ8P/acv4Upxlw0oP/OZn24vOtfqjpdKADd5YKHil4n96xpj0KgJOFCRhiAhm94vHSMqg9vgJZo6mbr6Kr9twcSK7q5/sywFU70gto8AMCBYUtHvQyFfvgKLOV7nWR2+5vKrJZOhdELql/o89S5VyVcDNj5v15P7BujK1X4d2CL4rYpHFRph2t7zwUfO4Dc/+5VBQZfWXRag/Pxv/zxOnX9CD3ej6gB2GzswDxU74Tf56+smr1bcDCRe7cpmMgcSFAXQq/WKVnI0bDYxwAKublpCYmhmUmXVeLwHSPtXsBBBXv2oJJu+LD9ByfhryQamD+RacBmzTgVrVcdMdjdBTZ3bKNTZjY2xpDNJVjXz6QcFmhjGfkLjvShDR8AHfvk/rxHx6N0l33p/5vxZfPSrHwNfRuZIWSaWK5JSmZSL6lGkl4RUt9bXqxmLv8qtcz10XG0epmAA+onqw/UDZN5YS96vm+h28uoJjhYnubRaVUsmH4RlrAETjqvSZgWTVm6WlyrLJkQFIUK9ppIODSx2da27FiTPE7V2tI4YSydzjoiQ1A3AgyICh+OQjR+VsaoeDiYm00Fcdt0qjzr/5O/cP1PopXOXXEL54Od/CQd0YLT61B25uxbs3cRPpDbogz8fZ/SnV1n8Mq+8wEhWbkZ2EpmMSYWJH3zcVq7b4+HDOxjYPA4DE6LUjLFm4hiJSlQeW5YuRxtsrRTS6qFVoObnrnNdFibK8Ya1yMnAWC2d1HropFwXe+6Msfp6dHGDurh6af/kw5R/aD8hEpAkfg4oaWEeAPDgidP40Ed/D5fbXVKgfP7BL+AjX/lYu4fzvZ6lD0AuHNBPHPFDe8ZHnuLdVN2p6gVJWp7MpR7qCeEBSARsMyCB3z7PcUnSYLW9pFeDXP4BTHo1ycMkGwMzVHlWytAQkJUg7gfUfilLzDE0JH/9IiI9A4vUya9UMH2tjofSycgFgdnUaQNjrIeUUVp0nJnl4lX1o4H9xNOLupLxgV/+3ZmCLo27pED54D0faioOILpjW6VxYj8gA1urEu2ReTdgx39p+Me1iEGiRPgAJLIapSd0P9Gh2mQnq7KjzMDEShzzMOG6tif2HUyk56HeWG/b5l9DYFZ0YCciT+jWrkzIU64vv9aAUnAy104kG7GXzCLCVFiANpBOvF/910JSA89d6zb+gjnuoGfKDOqqf83rCYImJxXHXiSR473a9OGPfwn3P/jooAKXxl0yoHz+4S/iC498udpAKh6SvmjBsfLr1ZcxJPq/VcC5OJDo3aRNdRqpN6ZNeqLHapCFhA0PYYJ5mHA8/paOaVu7+2sbkag30QQbAac8UWv3jViYkPKzxtdoD0o5sf5z3BmFW4BsaIzVdVLT2UhMPkNVh+75HNjwOiWMv96jZSpjW8Ul4NOX2ZZySYBy5vxZ/OSn/h329thHLl2xWUD2N9TB1gad8peH5Up8m2YAozX++InijSUSDxK4CQ6r/gACgjkVJlrJyWrw89vb4uVjKWcEEwYKfJmqLtoIC66nhwnDx8GkHKQGCn6itqlMLT95KXSepprhyFDrVB1VViSdNKf8LNAUJDw4gqyiuUw+AveHTuAdoQuPzNNdL7TGDvKt7v/+f//jfIQjdpdklec/fO7DePz8Ezim1sZScm+sIMh3mWq/LZINRwImqq+nGYw7sYS7CKNxSoPB0n6VquUGtYmjyrVhnHdVM0hLEBYmsTRgJ3HWKoQqe1OYdABz5c4aYds/fdkRXAhVSkla8ql5Txl5mcEbkqit4qkJrzvSd37g5qQTn5XOzuxfaaBJqr3xWAG3LapTMBiS++WwfhWHjJ+RXpSepuWse77yOB548HG8+ObnBZU5enfkEsqZ82fx6/f9phHoxRBrJQz/tKreZanvLplgDHf6r/vGr843+lP5tnJqLUcSSdZxlJoQqTbaviJPEq8LE5unhYmVYNaCCbiPtA3BS0euDs0IayebV8/Q0mq46DgEmsqLhZpBOhPyhWV5hojqN2/qxRqqOmo8MLzMhdNO+enrbAzjZJPZftPt1YDs1R2Z3O6/VP9qmk4ScfVOIVicyrPC/dv3fHK9iEfgjhwoP/3Zf49zF86VvSaQDvWDWSaU07upXHiQu6tCDRDzR+Ff9xyKhpjJ9+JAkk17+pcZhfBhAM6oQT1M/AROXRjgYZIaTEqgM/YGMPHzdC4OmTwjFahen5xBOWM6uIC8nApMJlaPcv0bzJ4IHK5+UXgknbTx1tqiilDg0GDx+ZkqObhY0gOpzYAAMGRh05aQNWzAsJGa2ZWycvzhj32h74BL5I4UKL973xfw8Xt/S5SGRG2Fx9zxoPpdT/Du7kkNLtD+6/55yCgJqe01abBRz7m0PNYHiZYw9KsVAd8mLbfFMGmgmIWJneitfgom9vMOYivpy1P1chPLXKcIGi4eBmDKF6YinbCNpcIEbMytYIGb6FDlXZx0Iu1A7cN27sBhpVdrV7KVmlF7lGurNGTP4fw5LJROWkdPXcCDDz2JT3zqi0FFjt4dKVA+8Pu/Wo/UXYvQJAb+uJS8grAX4yN1SD4tMVBnsPrPfAenlqPVqBbeyt8EJCpfoBvM1oCbZmCi3kfrJsNqmKh4rHI1KU/sKXDp0JXTG2F1eRxo1LdIBXKTNE9TXV7O7WNb/FRzg4lSgaQSnEtvFNtYOiFpV6T6rJO3zUv+6yBC9tcXFr3rpCdozcMUDNA0db3x8x+8PFvxj9Qoe+/pE8WCnwgTFRRMqeyEBIodawFgkUocPi97VeS83I0yUqrrQgn1WNvCUuvp8OJAbiLtXBnhjF4MVEko2XGR3DV2+bTJasJ6mK1jfBUVqdqT0E/SSLoZwUTeB5vUBIiMsDa8tdXEkQ7Q6lLxCFQgM79SgckyS97VSJxSfR9LSkBa1AuZgcXC5A3FGAuZ3s8Cw6uDLhkhbnsYp6rlDMApA8t6C0nHQGkPKS3KKY8tP3gC6AhwrAxvpJoWr1Qm5yX2FtcYSebDH/k8Loc7MqA8fOokTp89g0UqygQlAlL5TZQrOAg5CVg0RIrNhcpKD4+CVDs51e8IGrDU8wqWpJaCzDblOhh40ZolDiQ/0JKZBHKToOZXvCwEADXYwZNNP0A3Mr5K2f0Lrg8Pk1YPsraCoURD3M6BEdbUy8HFAye0wVCxm7SHdBhGRQUFFvX6EQi5gAW5+bdH1J3r1Q/l7+pg+1KkZrteovrD9E0xLlOeQLUdNOUCTr7j0EHps7QAFntA2gOwB7aeAGIjaYBQdTOt4zDfAKZqfTt36U9JeebshJ/7+c/g+9/5hq6vjtIdGVAeOv0EpguTAklGSlXYp9wkkmamSmWZeKEgU8IIia8qCyEptXAkWUYuMKEGkwgylMumK/ar4g4AgNpgTUoa6SUO7WcnDLn4Fiai5kheHUwC46vE3Rwm5ZjUe3NjmEUA83X0MLHQ0FKKapeDa56mMgEh9dHdx5Joqf4CWGRg0teKZdiu88VPX5sAoJ160/qM7PVBNeTXz15Q/Wuvn2zA0TBRGZcPQwN0AYSElPaQF8eK5IKERVJ3MVPpHiKdQdY1hmgJLI6brD7867//9AHKidOPY7mcsFeBAlARaauEkkANIjxWcgUKz3EeOkS5hwb4ZqWAotSgAhR7DKRyRyGCIhInBn8krCVscmb7x4EkdePBxhGpwKgLcIO8+kX2EomrYWLDZmEC++zKSpiQb6OcdHYTDxedhieczosIeZlFOtF91iYn6pf+qMAkJxTpRPaqYKHXSJKtgMszCvHSiWpS+csEWl4oXx9sdp4KRILtmOD6d2Cp9aNpCWBZ672HvNhDwgILZcr0kkoonRDQrHdVNaI8dUD5yEe+iPvvfxS33PL8oJJH444MKAmE6UJuag5SBhIVSSUTUirqTNY3HwWZBSSsfUtSqzqoAAnVoFIDJXzUuCjftgVQrgpnJCDh1yNQg5UCT81QNl/VuKrdZpx1k1hPdHusbRGbwKRThxxMmr5v4syARdfLgNCubli4BFKLgkkbEdMEmqaah83POwLV7boVJonBUm5IpG4k5TajpmIC+OPuq6QT01YC8nKJfHCAPC3BBnO9WGDStQuRMHQReDIBtAQtlwARKB3H4tizJB9PdfhK82pn3WhQw/K0xB72JFoCPvuZe58eQDlx+nFMy2WFSLlaDJZEuUkkZd6SSCqokkoTEpjCXp0BAKfelEMTt6k7FTbysh7tX6UToY/6tdKLDGQBTYNVzZN17WkSaMmYS2ynHEgVqQvDEDRjmKDF068NiGwyaxhhyd7tSRUyK7W0OpQyWDrRaoXE4QOfn4ZJVrftpIy19Tpr4DHUkuSl629XuopfXi6R9/cL+DSgPEgQON/oVq/iko4HbkapAE37yJSxd+zaFtNLKgDEaNvRkRsxodhrxP30T/9HvPP7L53ac2RAOX3uDHK9/lgQFqkoABnUOqZJJaDyZXlIR09JbCpEHiQw6k2v6pDEaRJMGXQNKE0qaQkbQKyUouI1CIm0ggYkSQ8A07Lq2SlV24wKTxoq/AopLRXo8bkOTJJJB5VXzmT3mph4PUw4cF27iZnEXEfSWdV65tykE11RPantNFIui4G2rASVa1v6d9FW+lhKMX0ABReefwm2jgTQhQuYzu9X4EkuVK+7bb8rQLuOpja4DSkXly4cgChhsadWaxhIHcHIdByPuqL22Mj33PMwPv/5+3Hbbbf4TI7EHRlQnjp3Tl2EBAKV1xT4B3baTjey44nqMy+kg1RnqU1yBih1wodhSGVfAxeZxLYCiBSi1ZoW3n7VW+MYIiqMy5gauBiRIgWV1zVw/GIbYOhQBVSbzKj1Bo+fwKgbwQQJuX1uQuAjeSUxLKqOH6pD7Vq4c8Ccg8xVqml4ZYfmVR2dVoFG8s4gVKg0iFOBChZKY4hULth+a+0g5AsXMJ0/L69c4LolVSeXWQdB3fldgYNwWMDQhX3knLB37FmdhGKf+yFUo44rKxWosNpDZS78zE99HP/j3383LoU7ulWeJx8tF6PdicuKRzG8AuZqdVAp9hAi2Y6uhnyjNl9UI0DXQG87Kdkm2dLd9rTU1A0SChYGKAKEll7BKLWwZN+DquGRIDBpQFlUVVDK1atNlNADo51bmMiYrX2t38ZmYCKwMjDR5w5W7bxFHkkt4tqGukxFjYgmecvfqUGjyUgMk7KcnBZ8/VBVoHJdRYJLrr228HxwgFwlE5bYmtTAVHEPLHZuAJNO3mrjVbWrdmC7zV44X24qi2uC96TUFc8mnTgCA8j5AvYWVu35zKe+FlT6aNwR7kN5TEAC+zBaRtnMthZUgAam4nr920yJmpxUR+vw9uxDE2fIqCSJc0x8PgMSI90oCWTiPRXKgFtVJLO+kQBKk4S3/BOo7bvgfBgy6g6KfiwzBDJLA+DJFK3oJJPewinJxOrOnZ2Dz9WFkfIqTLKtsIWLm3oc1m4aNpxKA0tfUd2nsqiZpoX6rIqFpaQvwJ0ODjDtn5dvEum4DtSkBiHpgDmnAeJa4ceshgsdnEc+lrC3eFZQCBWoUlGW/T6Wcj5Bb4J/+KGn8KlPfBFv+rZXrKjwxbsjA4rciUnuXuqVBZn49QQRVCB3BT9zlGtUT9aHXBxiX3WnKqekykJTj6x9pOaiAdPFUUAA2oOIGj5GMmFAJBlqvKpUylqAkqxsaSAVoErZoirVfKi+K2ZS0kmkwqgJLRPIqkNyE5BLFNlNoMIB64dMoGpPGl5Kd6O1UoAaE55+VAz9CYtafR5nFSoJXblsMM8H+8j7+8AkYzKMm7hyFqJd3fyvIZj8JnNsLFdyTABdOAfaAxZ7x1u6xJV0cG7p2TtPVYKTDD/4c799dQPloVOP4fgC4YoGT9BMNIAKH3Nu0u16+vQXGC6ehw2VLewuvuj0fKfy2BdpJqnJbNUejsevViQBQKrnSpohBRM20jaYYApAwvnL5BFj8KLVKWfCdGEqhti2OlLKnlvRiZZWG2icEbZdTz4n16UqTp6mft8J2bx9WIvjJypcOYAYbGt724bVBSB3aW13YslkX75HFBdf4/vRllYkaLHG/kF69tfp8oXzWBCQeH8JQ5Sysqn4zHgrvp3aH/m138fpJ8/ixpuuw1G6IwHK6XNnASiINJA3JQa8rDOGCvytquVp9hxU52WTmf4OvAPRmKQ6kFpD2zqstFJrkXgliTqppI1FvYrUAMXn2eTVpKOm9iiQdWpbwrScqnSCsvW7wonKelkFlu2TSILxYXKuYRDdjEX9oUg68fDp6qL7PZkwfV2MH6hsha9to0XNo8K29EWxn+X9feT9g1YhLsfXsV4oWfFJ+hw9CIO26BZ0kojqiOTapEdjvnAO6RiAVKBC7p27SacnkWSIJlPq6dPn8JFf/c945w+8eb7eF+mOBChnDs4BQLOUN+NeEr8SYR2o1IzWuH6rQKOBNtKvZTDbOC1eXXqS4ciTXOqcyevkDAFWWVT7zIpPav3lYSJAUTBRf4S6urScisrCK0gJoLqHQ4ZiApQRma9LtHlNALye3cSAZppkm7p3ZZZLv6oJbS7K4CZgyq1pc85y81K/tFjI+1f290UKc3DznKKubD14bd3CjNyxUXc4J9LolFGjIZEvnCuPBKUF2iZPuMprRwwUNb2J8HPv+8TVCZQHnni89kWqthK7Bd0AYhVUhEpQoXAoHzoNmmIc9rIM3LVJ8XgwA6s3DLNuXgYqVTWXFDBkMJKCC0AKFEriUefkwzScGC6U2tf8WplAlVL4yd5im0m+Dim1uzu30ao3ybQ/spt0/VhXdrqJ3zpxcPEaWIJwe3M2ZQoEMjChrZxRIuRpiXxhibxcgjrJIhmYaelEFwujDrs8HFRS5M/D1cQlEz+puIAAKGXCNJ1B2rvGGGG7W6Lp6wlFtJF+eej+x3HU7kiA8uCpx40kYvubPTUQ5M7eQcVcPP2sbzIduA5ozB1pCxDhMGlfqUVWd15yEk1pEksqPKmpl0gUFLoVoEiaofJ50LY83MpQUgofu6VrVqVkeZuljxqmJm17JaS/u5OVWNr7TtRE9fBpP2pC8/XwnRtKL61OOv+ygtMeN0hln0leTjU79Y2l4Boi8lMHxYo2AIpLaEARHIOs1OIrIYCh8uIpOo+9dE1XVgK6j4SVPl0C2KswzCD4lzFt3x0JUFJSF7oKGTnVZ20IMkEYKsqvg4rOd6SmQEyeXpqRUKkTh0aDaF2ItPwc2IhSq41dhoVMTPK1qmU5CUXgg04yaTBhKBCUemFXlcovb1tX0o0BVzJSi4aL9MPCwEX6w9455Ns8g87zjwioDp01xAYXzPexgA+guryal0v5QmLKFa5KiuPsWn6pa2QBEM9gHtiuXVFbq0vuOHUN5BEHU3ZqjazL73vH1c10pkMA5Dxhb7FX6k2E00+eDSq5XXckQHn4ycfBXUZE7Q7Ig/GwUBFoiEvq31nIILhLwl4X0nGjePrXvJxJalMeeU9dGhn4cve3caiuWGhpodaHQeClkgaCEi9PuUFIw6SuTfVqjpJkwOH8KEBbOeIy1RO/BuwisbDTrygAVL/zZHUdq2FrwqO7t5uH/iahqUIoz+fQcqptrXEZKsluZPP5ct1N2f4+59Im7+/Tu0GhezNUZ6gq6nW5mNIFLNKz0DtbEV6XI8oo+1Yynjx1lQLl9PlzsvSYqgiayuP5ZeyTokNaAyraeWz0MUqqHgxGJjgMRJQ0YiGi0hADwQ3KdokBvyvUwKYdy0xrkGmAcRJMnRj6O8Ulfg8d8kABzLneMazBJU9YWyiJpFRc7r4cGHdqg4jpCCXpdP3ssiHdbwJq88evH6DSi/p6lN2oBHP9oonPpyox8fNhTjrV6Rok1K+GjRmz/lwXWi4sWNyjaQkce5bkqRrsX9pU7lFLLOpSM4Ui43bdkQDlqfN1lUf92ZFR1QJSA3gAlb6z06D3ex/7Kki165bzCVLOQUT8A1g1iYNMm3mw67xMGe6FS30dVLiyx2hrElXjtV321TYaKDBolYbrpiGlIVLbmhYmTfMzxmUAadFeQtT1abm72H5TDQ1Xglo6F18HRROa+53fTdv6T24olAjIuRqt9Ua+NCrOVTwN6+WBlFwdm+rv2qaHdbtlaAMRi0u0BGhPEnZ1pPabpwMk2itGWspHvhfliFZ5HpWJ1Ixj0iflFY/zUClzRNLzWOb+WgUZteNF+UTouXiI6Hj63SNeKunKUlvj47ro9M5PpyGqD94xaERKsVKElkwENB1UGELtmNpx4Qk/fyQSEOoy9XSwrECxde8ukAcrh6uL5O4Hqr1qbkEgYP7IPj8k0LYG8vJ6hMFb4PykVxVn86x24buMO5jYAHWrkTy409Qb2LXxNk9LHFvsdXn7glndyUT1oUFcnUB58NQTDRTaJsAXgZ+nCaFSe6aoR+wH2QENgAfDCDLFr1eVov7Xk/SwENHHI5jYeCKpeKnE10lgInXxhmVdLk8m02ruZyOh1PZ5oyvDx6lGrbwk18oud6fyesTlJG1sfeimUTRpXSd08Vz/RPOc/wiozw9ZOw4YRKirHpSAupReJJWFyc5UoasjhyTnL2BRr+jpvwDoxqtuUOIKs7rj25+XQLJqTy+0i+0kZwA0yatUj9Ad0dZ7uUsTYOwoxaU2K/hN9lShwgZ0QYuoEtJpqV0Evtu0f5O7ULpWZvJaiEhXbw4Rnb8VmS9SxWnhsZ+UaX99G8wX8prEpyUToGzp5y3/aKoA9wkh1e0uixbHSifqBUoaIs3QS0Y9ElAC5koFcDGgUWAg1TcWrKRsJ1GWVcUhQjPQVtuIWbEazT/i8dZLKT5Nr+5I+piMaDAhflVq7aykwilPSOaMscx7AAAgAElEQVRlSiT55movyeVl2k3KAfDgfSfx4ltfMGjYxbsjklAew7E6Hu2FFkxoqDRJg1IVVip8TGenYNwp4xj/qyBjAEPonuOxwLJuXYhoYJjzTsXppRIbXuri74g9TOy5tIFimLR4Dm6ZbUrcTyR5+30pXLekpc5aFttRMtpnRi1MRGXiPS/lplHD5gyx3UUZAEINMgKq7UQ21ZEK724kPHkTdeqPv1Z94dT6TUsjXVyOatpiF62THNZXFPBHomxj21ieDrB37Nl9R1Fu9hLQ1NSeeAPE9t3WgfLkuXPgd4y0nalsVwBcrzJUqnSCouqUT2fYDgi8Wjns5qQYqv+MIKIhYPyC4w4ikAmbg/CjUHE0uPRStc47glnL0/jx6hLJr1dZ2gY4tPNyWI2a/H2alkaldTDJWqWqx+ZOH1JDwZH6Pmt/bDvJfTbhcSFQvfT1Ke+0sGMhAFux96Vm9vNxTQ+o9P51A94v6UZyKx3EyrieylOo9Tqy5MOSCSpUiCak0Wddj8BtHShtyTgBbBupH62AtZewq3cwVnkgk0kTRN33JJUHDJIbBzIt/N0dXI7LIxjHzcMjLgSOv6lsScUJgdMgJSboDiYU18nAxJfP0hUXBq8mlXRtly9SMwy3MKBOTDIwKqqthYmAB0Yt0k4vE+v2aZoUNuRuD4y+m5FKrOZsXfEByua9YlPpt+kHlZpZQg7VHY0zDyMAbPdge8ec5FOeKq4PDbJUkyf75wbdg/c/Ot+mi3RbB8qDT9TnBSojSI0xGQQaHnIuvwA/n4KWnLqbRni59d1AAYanW7yC0x+3NpjTgQSjBijpuG3C92n0ZDaDfF0Vh/MO6mPju2VQ92a1eZi4OOpJ1xavqS4MFA0JeaeLXGfuw6papNqeAVz87mgjnag+KGHVduJeSzDqJ/jwBpVU7bNKUhl0WlHPk651WEAHBNJh6gaa654TA6R21VWeCUQXyqsNiOqnWycUyYT/FJhwadzWgfJAfY5HdiXqSSXSSaLUNgi1CZXEn+8o0vMCAiY9ycnYaUD7fRDor/2mEOnzSA4sEM3OxF9fxQH6idS1w/k1mLj2e3iZtHMw0X4KoHybFwmC6guABAoypLUiQB1AGE7tnTNsnTc7fy0kQapvsiyPSv24EXa53Ug8eoLn8pXCYk8BzJKy6RBXSPLjk9UQdGn1i5X0lwQ7u4kvsx4LnMq7TxYZRbWhqdqORis6hKdOnwv8t+e2DpTSr/WOVZcreckYQAOHDDIRGXklqL38kaDuaOx4AVTuHOsAJpqE7NEBwQaHJxH3iScWgnHUoLIFFadvgv0NYeJ+FcBMXdaCSer9XKXIJZalbC+NlGuZG0x4REg8fi6p7Z9pkNF1JOQ8HV46Mb8ZlPnzKHWAWVHXNpSo7brlOF5V6RQ5HrfmIsuO2HaVTOXMAn6p6fIACXtALjChXGFiro8MhKeO+Hme7as8p+TVBdpmwpDhVxK0VZymh1eQsIhWYZSkL1ADVGnU/rWAEX9E48BBZB0pRE4D/Z5/3YTvB/J2VRxTtkkTwSSpdrs7PPtdBExMn3njtqokNfrYqdZUDe3vnjdqUOHHDfjJ4VpI+cawrRcPAlL1GEonxq8u27KUoiQQ/jUqiRbHtR8lJK26d+IrH9dlXsiXMGZXjrgvpwt11++ySiliP5Kt+NRdk6Ny2zfKnjsH5gj/6onBm9Xaszp6bNU42vCi0FB8DGCSS8uxk70IIDMJLkYKMVEc7LQk1gFLA4EnONrY7eq1SsVRTbMTRQ3qVTBpZVBy/SPhtrAU+I37w5yQz68VXi0twb08AAkvZfMLpIr/or1q0vNheJ1duGMJeByy6tPAErlqSyn7qAiYMmh5AFouqwK3h72940DaA7K9faWang2xflOcH4Uc32xcoyVSYICN3FE/cbx1oJw7OCsDWdtRWluLxNKkERYn/cqPJnkSQHQb6gPAiMzjwSRuWxCxE9SWqoFAJu3FqTg6HUOMojQrYFIOBn1Dh/RzlvMozlyBZqUocfu8ZKJAw2BZLkETtTTyeoFDSCfmlwCaxJ7MUFFpyySfQAf75eG9aQJ/GaVwZol8YR8AsEjHsXfsGgBJqTN1qTdyqq9KfgU8vDycckZ7Gll3uNZDVR5PHfETx1sHyh889kSFibWjJFhGoIm43GgPFeUMa+zeRA0Y1klJxS2RHIYuCiAl/ugmYMYjBZDQcdSA5/NWnwFMZO55tSXZtmM1TCiwC/j5FNXT5KETzu3jGUBldF0AqlvG2SZSP+SlgML7Wcr7V/SrL6ke1/foDm4oEUPC60qoUKEGFSsYE/LBeWC5RCI7Pr0ATfkAOWfsHX822o0z59ZBeoTYly+xFFMfeFQrODq+sdU0klaZfTRot+i2DpT7Hn2sHXs7CvQ5SHjCEq6CSjQANDBap60hvfgM++d8XJRusI8BouPJgEzmjshl+gndSyUubVROCKFkoFnG0XowObTdRMebgwPZ/PSsJRcPURntr6qtWaSxZqwlakva0i75FImRaCJidnULxgehLSuXhZ/6uToi4OA8MC1N9GiENaklL5HpXNnp2uAg45vjSj4VJjk3qOiBE71Luat7PXjwvkfm416k2zpQFsdExPR2FAAGLtpIKzYvTiR5CjACpz2T3bWgARFBZA4gw/IG/sYegXata/wZw6vy42avAxIps04oE9fc544WJs3/sKpO7xpEWn+IJNX8iNA+e2LqxEvYsqdE1CYAxpBrYe7HQ3wxyjtryz6VBGKYEEOAB7yk12OyuWmJnM9isTgukoaDScUoUt1joj+fYW0qHN1R+DK47e9Defxx7O2pC8XmEGU/bc/0NJh4I20yU8cwI/DTEanF6e0pY4CU+JsAJAzTA5MnOwe1iIczvHoItfwVezXQfBu3ARM7caU9cx20tqoTlOPzieqpk7d+0aAgqtMSKDBRb51rarfOYCCdmMLqC6TyhLR0komK26kf9bdJ2lTUtOQ+ymXLqUvJOReG6XzMgLb15rKTugOskGO24rYKlCfP8ecz6k6SJqEkBRE0ewoAWR6GNtICfQcxFrQfOj/j9AQgH289NWalP0nNCFBg6KUSTq+B0N0dfVkcT+XlISR3Wnvn7W02czDR9iyXv6uP94ygyhO7K6gr2IY1OKg26HljkyXr0X5cX7f66Pe0tCkH8xDkoF5d/fPUqTns5tQd71d2Ey/UOdrDgZSnZl+xkkjXYKweSOX3wXtPhnXeltsqUE6fO4eU/HtHkrpDyKBlgLS4zkjb9qNARUgqKrzFZAyYNgFn6r42QGYmWrNnwIJjK4ZXuPz1jQzoYGLUNj0RhzCxaXqVxqZBLdNXfAQd/dtJLb4cB0TdTxS0z0BaA06VZzhRI8uqHMOlSgp6r5OHAGeYs8nUfqyLIKtMQUbmomaUxyUXLS21Z3HI5gs1IhxU5J0oTHLVkaW1V5+Ecv9jjxnphAjKJFJsJ21rPSpUUDsfZIy0iRQ26rWxK8saNTwwVHD9jSaHjzsfNgCIOyFtOzFlDlZ6ogkKPU5iFcfAQZff4kRlAuO9JsmdR3GCsBUbpQ6j6kR9QqO4OtCkC6STFugkGgOA6mEeXFRLxF2a3E3Q5I6bykO9v9SLUL7uWLb7p2kJynoFp3fJ/YZ1UAOgyGBlcl1VO2UfeOLxZmcFalNIPdRX2dFssgBiI60mqqzXR3BJgHqsPoZLdD4Os5O2Cw/hoqUwnhibGV6jdOznIaSr0fJ2MOHABhNfVvXvy3flrIBJr3b5uFHB/TH3yawhFtJGeD8VT+dtGOCO++pRfe1iLSNlyLIO0Ez+es8IWenESxQ1JyfBOLDkDEpl/wqI2k5ZTsvxTfpWHi8JR8RW/VDVptNX0z6UtFjIoCCe7JBGJbaTsDG2+nMn1D0EXnWpuME24NLBQ5cfxRkAJMr3yKQSV0cBV2qzyMNEr6qRToQ+rqnbJjBRB74MW1EXP4gbSieEvj2wYLB5x7aTBoiIIgEAWsDEAVOFSn1QME/DLVO2QX6Ao6tDA02eAJA16tZOFZi4jo46JygDcEA6QrddCeXU42r2K3tIDRdc1EiVOuYZHjCEFFacSrspXMjUYH2AyGEPEBNHDVp9LdeSSuo/xvCq0kZj0YMm3jCHpoaFMFkBjhAma2jhs6qO6ZwuSmjQFlhysmTybP1Htn98Mf5Y52sqEkEHkNcqUtwLesJuou4YNWnUaF2GbsCg7lK+zkRKOn3qDG58zvVBKy7ebRUo8vkMUXX0IGlXQ6s5bYiXyKT8xF+h6RBwiT/K1XsI0gZxEV9L9jID/BBSCcefk0oMfOYm5XAX7Br7SkYw8XkR1wdtUvcVDs5dPizRNmBwfjqc6xC11YUZsJCru69HdJFH8Xwe5NSduTxd2h5KfaI5G0lvh6nzJhLlXJ2eevLs1QGUU2fPyURuLU514qsH9JgtCi6kA5hErkcPBRe4AQab5rAA8WnahFADeHZsOZhEaX3RGhISnqSdDiY9kNbcpOYLducWbjNxI5jOgcbVK5ofXZ4KRr5M07cuj67YORgq10kZwbnkUxYhkuuP7q34qrzoCeOR/UR3jqkXScd14Dnij30NHp88nHvg0cfswGsX277Lle+ydhJyGtknQJSQScWDHhwJZeXCbgojlJX9lgeXx2XWv9yO3YAj++cnUv+ndmJSFTQHMGltJb1zk8uyaaHTt3Dnr8X/lTDx/dz7GX/jGdtNonQ+ogHOqD9bf1ljr+0HZ4itB3pcmezbyQbSSQSSKJ6pfDlt74WtAIhsLL1UYfPuHxUR+0ny9NagidoHnndlNpRNdBMyTXjg3qPbfr9VCeW+x8rrH5tRlt91QvUuqiSSsT3FTmR5YVPpoGaeUS6ZO6/exo8Gr8iZwT4K7/ysKmEm6wAktqxDGF67+ug8aE2YpM5zCBMzsAcwUeP7YlQd6TNtE1Lhtsg+H+r9/Rzz/d25VaCp/h4UKy1KBOztHUO+cKGzsfj0q+wntq56JLB/+eIALze3Z374AlHBC39k76jclld5CLyIA6CpdvVHqXrz9pRoEBaQaCMjBWAp/1IwcsbwKOXOwkOlDbOYGQMRSACeCGvaSgb5mGd41oUJ4r44FEy8c51AURjGcXwZcjgwxAI4jHTiJc+wfiM/55I71tBJAPLygskrVnf6gta2n4ACyUbVQwNwjfZcrNuuhHLyJPaOLaoJZCG7ZrmRTiApnsVPh0kAJ60PoavOIi+GRPaWGmRfP9i84VNEd7rQRRPKDHCuNf+zBakkAgzXO4DBECbRRF4BE5MpuTrNgYJsOpdNbIglFV7bZ9uj8nB18UX545XQGIGGh5fKLNx7EtIRqhVBZTmc4Own1JUDHcdfSH9BR3Uhws23fj2Oym0NKE+eOwfkjLzMWCCB9vSnF6CIUVyCPrf7UySOPQrhsoZKNPukMYBo45ePbMNd/O76cTu2IJUE9dNQatvHN4EJzfuF7zUJYNJHmjn39TAAtnNgHUMsdFofRjUsmGwXI52sbYyFlRAMjKD8OK4dABZiiO0n7ddcnODC6nMi3PKN34Cbv/Eq+HLgk+fOt7dt5SWhvKKuvACvTfJFsnKbVn2UPaXpgeyNCC62c+dUIj/5Oz8XPguPUSJ9RDadBgAwgomL79LYvGfGEf8eFibRvXQAk2YDI+/vMojKjIK7rFLzI07L5xRLlFG+ut+GbgQaDwSKpZM5Y6yO61Wi1RXz+Uj8WAXCmMgA3vjWV61f3iHc1oDS7Dz1ytNUJn17WDwBaZHalysXKbWNh+0PSuLgIcWDZQiW8i8BsUpEUCqPc4eCR5hNfCcFti6VyLF7uNKUeREwicZi10/BNPCgU2nhTmdVHRokd3UfxiHXDt9m36lrXvCNzJgqTzW0baAruzP2uvqvtJ+Qn0rcw7pjCa+8/WWbtGRjt1UbihhdUe0khDwBi4pmygyWMuEXfF79EhJoIdOaPzVqnrBkOmFGauG4rVLYGjx89tqjG6vRMy+mamvaShxIfHwbd4swCY6lnQJsYBTZBQ2AGx6vYYjVmemq+OO1LnQEGg8lP+nVsZc8vO1D5+3VndF2e29sXWk/UUT2G+5YOnr7970JR+mO5GPpjSpt01o5T6iDJgNIufwkLcEAKUsOSO4XShJqfqn+L5GYO+VkY8Gyc6O7cTvlZXHIAD4qqcSU0eW9xvM56P2aahF0UvPr8lIEDUDRSScufbcPx7UjqisFcQ1YSdrStcNXcDThnfMSxqbGWB23V4lcwhBcZCvfNZ5sWp8BdxoIN910A1506/ODVm7PbQ0otzzvebjl656PBx5/1PIEaBe6fSmQL3wimf2E8r5QPk3sXYeYV3kUbCRcJBd+/R9I8hy5fkFjLnYfVl5HWI+Vnz4vfkrEbyHaFuDfJQPpOzWoZJLXLYP6JU/dGLV3+njsybtYbVodB13eJsz7+TENgcFoe72J7yHVDnrpZFj0mtAIQbMCMrOupp9Td6LdsbN5OyL2KlDQGa7MN731NatqftFuqxLKD3/nH8L//N73lA5jqKjZbLfko0FHQ4VNH8wa+yYtkvTdgK73PHWDckXNjqkSKVCdvAvgI0CJX7+oq9/5q5kUwsfFMdWtdR6BYj2Y4KJh0h37eobtVulIHzpVh6Q+5AzXpPOq/T+CTAiNFfU2EgVDoJ6PjLEdRFy5s+qOj0fWfx37SU9myecNd3/LuLFbclvdev+O172uNSBcterE3K6LrHirDlp63opPdlyUyZyM4Y3Q9akJKPkk+fPx+iRSdv3LeQ2YEBCpXsPVHi3JDCp02WAyqos+0e1yeUTb6yVJbB8iFVef+/KH9Zir/wg0Azcrnfi0Cj5rqTv1QqUgeC37CbicMnBS6+1yfudbXjtX+624rQLlxc99Lu5+9avVRJVfQCaWgQpP5NaB/fMsGi4CplVgEaOhAIDBwV0dqC+jP/J/6tkdBTI/jiUOXLtteYD0RYsT9HGJn44MJn2coAI63Pu5ia5h4LfX+/x1XuTOh6pOi+jsLkGeXR1H8PAA4AkdTF5/rveeWKOqNGx2x6oKW9t+ossIrmEi4KbnXI9X3H7rTMHbcVsFCgD8wJvubE/nNZgoqGQFEQB2Irb+SC1NOBZaGoFHf7eT8JE2eyhwtD+JH4MEbdJH4wraf0OpRI+zbcPEjN8VMOmOwwoPvMhnl6yfBouLq+OE4FgHGlHF1ozbJAiKRpYtV4cbdQdW5RGVZVCWCujyC/VRHUZ41Wu+ediebbqtA+UH77wTN153fTcxzTtNO6jYJ49lgjNYUjcRLVgwBEv0l4FDg6P7k5/altLWaMUlUucOI5WsDRP0ccpvLLhvCpMu7+AahYZYd619cjtOgJF0Iucz0knUhqC+2t9MbDfph06NCQMZTmvy0BdPDVio5eIILKowbz8pxwPCEvDt3/v6udpvzW0dKADw3XfcUTbKMkjA7VNSx0xYrBJYYOiwJiW0SZUCYChokIdGsuUGf3OAanXZQL3hOnBAJJXovonGIMx5cp6w5wom0UQ7FEyi/Lne1Hnbm4KJ7wyxuk7a7qarMpg7K6ExgIh3HTw0GGhTY2w0AObrIRvS1rOfSPn+QpTDq1ZCAYB3vfUtpSEVKgyXCBxD4CCejOtILcbOcghpYwSNyOl2wMWdU2+iieHzbapf1zYb0cPETkhV+BxM5hroGjYHE32uDbFDEHjpQl8HFze2twTSSdSmdUBDvXTC7mKMsT69V3fm8w8g0l0AtM5KtaO0QfbGG6/DG+5+5VwLtuaOBCh3vuxluOX5L2gwaXfYNaDi1RZAwHIYqSX6mwkKnc7TGHertLOZVCKZri2VqHr7yCth0twKmDgIaL+VMKH+NFR1VFiUn6/LakOsq8860PAu8PNLuxoQPGk76UQBycNhrO7ocOqAttp+4vPyHVvyfvVrL410AhwRUADgXXfdJRNBT7AVUEELkwllxkkwWb3U0sHF/UXOxImgQda4O8rzSKSSqN4ME58+HGOph9cRwMTH77w68NhrbA30q1WdzpA7KL+rTFTnCEpSynx+c/nPqju28qPlYrO/hLz9JBpwqmyiSyadAEcIlD95912i8tQJqgfuHFTapIZMaD9556SWaIWInYUGemiQvcesC6VtSSXWxjQYg2x/UQWNYRKUuQomLkzn31e691rPEBvvOfF1IcT191Jhl34V+ALnjamhdBKkaXFU+ibFwKZZR92JlovnoGaA05LJRb7zLUe/Q5bdkQHlxc99Du66/dVmFm4CFUAGRgm7GKllM2ljDhy6PA816DSHlErYsyu/9UXSCeVwCJN+eXglTAJQrAUTA8HU5T2n6tg2BOoZbB/6OnV1HLkNQRMZZ7W60+KYiqnIs+f9alCfpwSkvqNax3eKt4p3KfafsDsyoABlCdlKKWOoCDjQi7sGGJtLLSav4C9yETQ8PLo07eAIpBL0Uokucy2YhHEGjXDjcqUj89NfFxNtc0Osnkuz0o2vrx8Ag7obSFC8dBuli87brYrUb3xRW4W75WKVl3eh/UQN6KTyu/Ott+OGm65b0ZDtuSMFyne/7rW48brry8aPrAZHABXqJlZ/l2oT2qRxeriPy+eDOm4CjRGQbLmXTiohc+AaGsFE9y9Ww6Q7jsqDvoYcvH1DrJSbTHqf3ywERqBZ4TY2xpJKp/NBr+74eom6Ey0XW/vJ8EKpDn/l7S9Zq43bckcKlBuvvRbveN0dMklXQGVOUtFOwvlcr7jEYNkGOMRZm4tRqWoGm0glIXgqSOakkg5CCiZxfhJnHZhEeXQwieL5OpE+vFhDrGpLkP8QGiN40JaWiruy5WS4ujNXhhbNTN4KOJx+eOcivPHu20clHIk7UqAAwLve9lYxkhHAb/YHYqiEkgoZ7dC4TaQWk27mT1wMDZrJ+zBSSVSxEUhmIVTLGMJk5EYwGU1O7eWvX2SIhWq/zoZsPgYmYV16Q6wHzVouiHeYpWIzsVV8s7QbDkDVMSC1kuPr4qBErgdNfEfVevrGt9zWN/YI3ZED5c3f9FK8+AUvUDtn5ReIodLtmm3xZIOady2umpBaatgcGv1+GFuYlDcn8ci4OYRU4vKROKNCLt3ycAQTbYht2Q7yJfhyYlVnlL7Lz9dxRf2N3wrAjNzYGHsIdcfVN1wuNuls58ub3mSQveo1L7+k9hPgEgAFAH74D73dTiTyg2EeKm0CgwfOCqmlxZP89QrPxUJjVG6UxZFLJWpCXm6YmKjks3d7RsjmpePqOFKfFYbYyK1xkVYuFSOAywgK7Vw89Ka1YbnNz08MF0d1kk1L5ofhdamlE+ASAeV7Xv86TFiIuqMAsS5UNCQOL7W466rrckhoRE4gsAWpRPdVWIiU0+erM0IfR4WZ8qIytFcHkx4kOl5XXR1XwcLXR85TmF9IoWEeLu7Mxe0mMa1njA3Vnc7pwTVQd9yFGC0Xh/YT1VFvuvvV40YekbskQLn1656Hu1/9KmSCWUbeBCrsOri04/WklggahwWHqU/7q0NsDamEKkx8Jfz4CWECAJA2x+FyPDTC6tM1YNJdH3CbVRkqbesTfW4gudoQ6+tGLv/hBR+FVRcuFa9yc2Vxvv4cm6k7nMa7zrjbVn2CziDCt979NJVQAOBdb/62+i4U2GXkTaASDPBNpZbDOg8N864Vs9NW17u/gXBmkrYvB7pfokoAHWijqCthMpqUM1RuYG5eFiZHYYiN0of1XnU+alcQf11jrD62No/DqzubLhcn3Xm13re+5EW44aZnr2js9t0RvfW+d9/zuttx/bOvw7nzZ7FXJ5p5R3VCe+csUSodnGo/JSBRUt8FsxjXg43zKsc1ZtJDe+z6sTYjisdeJnAMkj4xmThzBc2DpAf0IC8/0VY4byQvyQYwGUx6cuezhtgB7Mz5DPh8nj78UEvFOo4dgj1YRgWrTvDqTlj3YGAIvHzd5Qnj7/ieb12jJdt3l0xCuenaa/F9b/xWTJSK6qP+1pdUOH6VEIIB1QY0YSi12D8lbfhnejgP8mlsfXxb5qUSW2ef1xgmbFAedHCQfh2YhHF8n7prUw6t5EAu74Zw3XcaLGSro/ORYqwhtwOLd77uK6C5cqk4yn+2vP4Csqqzjrqz+XJxNPhLWbe95mW+9pfEXTKgAMC733oXMqGpPg0Im0CFHUEgwfGCiRrZWrYJjS6+d4QGwKiOLY5PbzzGDzuG6aOIEUyiOPEYNccGJgEYIlBoT2+IjcE3WDUKMw8aM+qDoB/YRQA5rDHW2DZcGUN1h1ReitDzy8UaMtLAN959tJ8cHblLCpS7vvmluOXrX4isbCIWIJFfD5Vo4m0stcDldTHQGDlSw8FNZH39w4kNYGOpRFXwqJaHQ5iQjQuOp8a6hU+KqjRviFXng7k6ho1zc0vFw3Rz5XG+s4ODTEfEm9mkgUaVUnWLl4urjF3j3vKN34AX3fp1c5U5MndJgQIA3/uGO5AzMBHMrtlNoOLB0BwBm0gtc+BY23XEUXtcLkYqoRmpRPWRgQkfHhFMsAZMungubGSI1dC5aEOsdxtcVC1hdMbYuTJVpxvJhQLQjODlGrfxcnE9uBzLxewuOVB+9LvejomAzLYUtdqzNlT4L5pYKgJ5uPRR1ncz0PCvmYwKMGMjAkXzcEvOg3hROU2NHOZ9cTDpJvgAJua6dXUYGLpbPdZ4+G+ujT7cHY+WitcyxpLKQ/l1e09C6jljavOTAazz8uksVLwaxOFFSvljP/Qda7TmaNwlB8qtz3sO3vKa25Gz2FKgfteFCjsDljm4DKSWPjP+cztqPTRoxZ/Llg9CkLSBsoFU4oG1AiTt9FAwMWPZhI1gQjqvFveQD//FzZnx3DAOQyUAxjC98wv3nsDBoHaOB4u1mcB08nC5mNh+QgZKf/yH3o433HX0XwgcuUsOFAD4obveVI2zasUHG0LFTyj+8xPPReikljlomIwRljtyJqqCXRcJADDYoKbimWLd2JuFiSDPk6kAABqqSURBVJ7wK2Bi4huYzC8PRzCJ6mmK9qAglYevTkShoM5duDtee6lYAwaBMVaFMww6Y2wwVkblm4LJ10cixsZZqddznnMD/tbf+wtRxpfMXRagfN8bXoMbr7sBmWCXkbEJVJSx010cA5Y5uKwjbcy42WTqJARJG1iHN7oOQRIN2nUgqEBxsTDR/WDiBGWaKo7aG7VhDiCDOLNLxZGbA5jOZ+jIxjF1kcHp1Z3QUEyBNMMBRPgrf/Ndl2Uzm3aXBShlT8rrmoSiVR9gTagATbLg/Qp+8DQvlT4Cy5xbFxpt8juIhTABcLFSybCyUfxRo7TXoWHSg8DHGRliddrIENtdq4s4N7YT56/TXIwxtuVJsMZY1ahQ3Zm5uKH9hNSiev257faX4U//l+/oG3iJ3WUBCgD86bfdVY2zMMvIm0CFXZnEh5daZqERRDjUkrIp8IilknDCxuHGy6QbrNR0MLGbzwwwWn1jQ2wMlv48uuauEuPwgf9ar3is7mL3nug4iKIof1kunnm7vQIJ7479sb/3F9drzBG7ywaUt7z8pbj1BS8oUooz0B4GKux1GKnFBsBCIwDH2q5LtGWpZAYkLfk6MCEbPNy4FsHEV0HDBIDfc9IdK+BE7V7r3DvXTr+y4902jbFR5PXUHQlMuiNcOzpjHAF//N1vx7fe9Yq5ilwyd9mAAgB/5A13NJWn2VKAzaAyuKCbSC3b3YcSZXJxG9RWruBE7YrizMGk9cHMXhOT1qlD6rjFd2N/VB9fV31OQb1NXnMXbOC/amv9SmMsnC2DnKGWAohQr+50lXQim9/sxmXrODfddD3+8n/3A3FDL4O7rED5y9/7nWWTG5yUAsQDLoAKYWbQtfB5qWWlWxca/Ne9zGmmOD9ZB+Orq4s/1sn72b8WTDAHEzOu7e7fEUz08DfVNv2xYhObd6uum2vrSDrRqsscXEI/D5aZRHNSj1eDjLpj0tgLlepdJoHwF37kj+LmW58fVPbyuMsKlG983nPw1tfeDqowyUgxVNgvgEo3qOfgQoilllV/za2ABv/NV8OUTe5c6jlIEx379gflhHEBA5NuUg9gYoAzjO+210f10qtsUdxRJ47C3XG4SWwmz04Kmenv6C4x3nti08+pO138rh0S98W3vhA/+t9+f9CYy+cuK1AA4E/f/UaBCYMlggrUYNNQ0X56Ms+BBRCphfyw2yI0Rs6NNTOeRhNoZpKFE3aNuH71RZe/9vIwwfiNYNLF93VybQj7dZ3O9pM8nNAqLAJPAKa1jLHDQbG+uiNx7MXx9pOEhH/w4/+VL+iyu8sOlD/6htcaw+xUjZabSCoUxeXDFTOf4bJ1aAwLcxPItSNMEx3DtS8oZwQZTidddpF7TXRd/H6TACDQ8TxEZsCJufAAAiFcBnmuXCoegSp0AofZzXQeGACMrcWRuNhmSmW+7e7b8cY3X74dsSN32YHynGdfgz/7nW+te1KSLCNjRlIZTJgQLBoMK8CyFUfjP1N8f3OK8/HH+nQuXRCmQbEVmHQTpVvctOceLh6u/eHYcxV8oSdp77eWYZacdAIlKQT5dcbYECQyEFaqO91JOb7xphvw9/7xX/I1vyLcZQcKAPyZt31blU5kOz7vYt0UKhx2MVLLSrcGNKK/qA2HkUrCuq9oUwShbWxca22mACYOmlJ+6qpq6jZqRzjh+oy2Kp0E5RrJw3dqkPjQ6o4HXk3yF/7S9+LmW64cQ6x2VwRQ3vaKl+IbX/j1oCw7ZzeGygq4mLR64o/SXgw05tKrevWVVXF8fD6dSzcHE/JRN9i45qu1BZj0CVS5o2uhz6NGKnco6SQK7+pC47JUgVtRd1Q4qzovvvXr8ed++PLviB25KwIoQLWlANWWopaRN5VUBpNrpdTi0l4UNAYTW9fDegb1d8EroReV5coTu9Bg41qXQ788rCN7cOgy2/kAJqQSdH0656I+UMcXI51Ecea+CKiNsUei7jQ/KeMf/OMfwQ03Xt7ndebcFQOUv/o934GMRfd8D60LFe03Mzk5/qzUYiLP/AXOGHWDvz7B4JiLWQWSqH26HrpeABDBxMGB4w0nv4k/vzw89As8orhdG0d9aCZuH3cd6cRvZJsDzHruYtUd2/Bvu/s1eNObX7lJBS65u2KA8pLnPxdvu/02kVLgV1zWhAr6sNHkG0otFwGNtd0K8IWTa6YtPp0BiYIJmYgSd+MVHZ+fi89li4tVndE8O8z51qUTlUe3M1bF8WrK1tQdqHIJ+Pv/6C8FDbmy3BUDFAD4c2+7s25y6/ekrAuVaCVh1eQ1aX1eFwONyPnyA5BsvBSs0mkVQ1QcwEgSuo36XMfzMPGTI7Kb6HNVj1XSTvsZATQ6HhR80dLJIF9Ob/NXHdyNL3J1kLjDZ3fCa15A89/8jT+Fm2+5PO+J3cRdsu/yrOPe+YbbkSkh1TX3TAkpETIp8qUEQPzqaQ2rv3wtU2wlh06j03G0bUDjEHFmJ9VMnmbCo4eq3sjtja9mQg9+t2WE3QgmG54fRjoJ86LVS8WxYxwH+VAfDz5P3yEq6KabbsCf/Yt/aEX5V4a7oiSU5zz7Gvz5t98FIgz3pKwjqTTX4gfXNLyrbOBo5m+d+D5oUP91pRKoY3Xvi2HisoeKbyK4yB4cpu6qjAgWXZYdkQYNXBWu/FdKJ85tslTc4pEYY0d7T0awWkvdaXWShP/9//BnrmhDrHZXFFAA4K9933e296O0PSmbQEW/SR/Kv5tsNswcr/MXuQ3jt6C5ybIKJnxuwGlfY6knvZ7ga9tNTPxNjLDeIhDEH4F0zrnwtaUTBkCQV/RUsY60qTHWgkQuzmp1R4UBePNdt+OP/eDdmxR+Wd0VB5Q7bv0G/K9/9c/jxmc/u0gomQfzmlABLFiCQbWW1DJym0JmJvmofmuBhGHgQBmChAbHrZgVdpPmBu985WMK4rrrov2GMNX+o774/9s7t+C6qvOO/4/oTCsLW1iYGFuSXWwTcCWFB2pMfcnQEuzYxYyhg+vUUIcJYWyhkgvUIaV96CRDjGmTTEqAlDhNMoOh7cSBDs7k8pRIPDRAp7XiC4lR7BPkTutLEBmj6Yt2H/btW9/61tp7n7Mtn8v3f9Dee9322vuc/Tv/9a11jlj6xXAn9H/nGFuYw6L0LprlahruxLvRC/Dwo9ukHjasGg4oAPCRNTfi3x4djqASr5wtCBUgfWFqdS0lQIO8N9JP46yHRMijbSTPmgFGNrxJ/qT7Fozg3l6SuIkrzZNflzth5XNNFRs30x7uuPrqHO6ADXeCFNv37NyA91+3WOhx46ohgQIAQ0t68fJnhtG3oCd0KbVCJRYFi/DCizNEHuWGRh4QZZTjD2c9roTDg8dNjAedtsG7WwQmrN1k3/UA+h5SIV1yJ0meL03KI2XyBWOFzhl9M+FjLWYzriXN6543Fw8M317w3JdeDQsUIITKS3uG0XvllSlAkA2VmcD9XkwyJNcS5dNP/tKg4ZKnvnHOOM24tpyuBDBcCa3re/jTeu64SSCkWYcSOFz3y3cfWZ7TnYA5kYAPUdIyzv/qJ5zHCsaSCrUMd4zFbKzo7pE7MHfu79idaXA1NFAAYMmCHnx3z3D0+7P5oGKtHXE1TsHietPXCw1XOzNwQw3p+8w/g0PKk/5ZroRChtelsAKED2R/3MQ8qCNuwu+v636zdNGdxFDxpbE8Chdj9iUP4FzvH9pHUlYCGyX/qtXXY/uOD3pO3LhqeKAAIVQO7nkQA/29xaES7ceuRRR9yMuGRg1gSvofHxtA8M/gGO6KfijyugxQRnl2f3m/kmMDFiXGTTIe0PBsQhoHQlQm10I22h6pkzcYGx/TNrOHOzawKgB2DW8RetwcagqgAEB/zxX4zl8WhArMuEoCliy4SK6lZGi4Tk0dBX3oUyCQ8uQ8Pldi1Q2ES7NgIveNntsLE9B82ohw0VI5VxnjgXXXFYc8jnOVEYw11pCQfgoT53b/SJnhka248fcb4xfsa1HTAAUAuud04uBnRrBtzU1mrMQJlfDzxM4jcHGdjAKjRGj4TkUfSD61neVK+D5Au+d3JTJM6vzSH8/z3S8fTIT0XO6EPuhMzpkelBeM5VnxtuKZLt565zo8sGtTwfM2lipBUPjONYT+5sWX8NyPfoyOClCpINqGCInTwJbeGwuKEJUhx7x8mbJucuBIB5iDsocdRt2AbeGoK7gHvnZHgolUtuahDr9Y3uGsMgQQ3G3w7+kkx1IaLx/IQOkIaF6Q5FXIDUlWygYBqRuBIz7/TPoPzWOgVGbITzoGQG/vlfjnf/nrpgzEUjXUd3mK6HPbt6J7Tif+7uUfoIIAAYAOVBB+TScIv+cTIBn0hunhWysuH9BPsOj7PXGVWuHi+pT2Ult42ONOGemBvW897FJdATbclaRpdcIENL9cmCRXxspxdyLFUnwL2aTv7TiDsbQvrj4b57Ib4jCcN68LX9//6aaHCdDEQAGAR+7YCFz2W3jy4KGQ9B3hi9iBCmYifHQgYUWoSvInUphTBC7WWyRwpAvlpDJyWvZ0cNxvs52KWE5MC8j7P7Df/gFLCIQ069DzgFllMm+YWcYa6tDXjAMjYPlEvmAsP5cRnPV10geguC2Z/Pjc53di8eLG/yZxHjU1UADgkT++FX3z5+Gh/S8AM+Gwx3IrgTm8ScTgEgIkMOFC8uLSZYKDdMRdR4KJ4DrKGuJY5xIvoKSl9UnnhHz6MCZnZfU5OASQFJoqBgMOuRHpFwGDtD5tK+ljSmprdgcIHVBUfvfuLbjlliG0ipoeKACwfc0qVCodeOz5g/jN9LTtVirReNVHAzYsSuASHRjuJVaJ4BDboB9o5CEtMsSx6ljtyDCxZnkMWMziFDF1Dayca6gT1yu0kC0uXySk6LmWzOEOgFU3XYdduzbnP18TqGmDspLGq5O4c9/TeHd6Gh0IUKEBWyAJ2gKpY6GgMD6l2LuRP3Z+p8JXKvjl/SRHAZgIIBEfegCBa4gD+5nKFTdhYBBndSSnMANbLnfC6jsDsaRehbWTFYwNA6g0zx2MRew+ZtJ8Wgck8Fox6gVYed0S7H/uky0RN6FqKaAAQPXseWzd9zTePns+BAoCdHTEQAE6oneQBA8XXKQAbSXyMLFygyOjsAQX6UGPryKXKyH5sSvhp5EgEZ/T7FMOdyLBJOmU55ieh33aW+6DQoXmBykceL4FlxmSF3XcnKkJd8zfPQkYnArO7gTAvTtuxZ6H7xJuUPOr5YACRFB58hn86sy5ECIOtxLLgEv0pwhcJOWGh1DG+uQX8y5uvMRIKwKTpAPSSdi2VpiQMrW6E2PxWQIY7k7CK6ZT0AlQOISStoMUNDOwgDKy6w7s+vhGtKpaEigAUD33Dv78K/tx5FeTiTupIDDWraRwkOEC5HMvieqEB2ADRC6bf0o43tQUL0na8MwckQczN0yA8oc6cZ0YDqx83e4kudiCw53ohnXPnYPH/3YnbvnggHDhraOWBQoATL03ja1PPoPxk2+nDgWhO0mgAtgL3ByAsdyLdAz+MArp8XEueNg9yXQUbL+meElSyA0Ty51IMInz+clrdScUKkgBYLoKx5DI406MhWzxuagbITcg/3AnzOhdtADf/NonsHjRfOHmtJZaGiixRr7+Il589aeRS7HdiuRC0k0B98IkPnx5yrJWrbycMAnTS4iXSOU5TOI/We4kZ5mGcScsjZ4ne7gDrLx+Cb6y7/62gAnQItPGWXrq/u3ontOJZ3/04+QNV6lU0jcBTJcSv/HCD2in/zAfJlY0C9NFAeLKC/i5AprWYDDxSSibOU1M6tprR2BdeIWn0bY9/aqQizVeJdpXVgcARnZtwe6PbXC13JJqC4cSa99LP8QTL30/cSXUrSRpDteR5V6kOrHkG1wbQHj6rAVf2TmMPkowicvwk/mgQ4ERmMAAHO6EOhGY0KAOw3InSEERuwkKppqHOwAwE+CxR7bhnm3rhZvS2moLhxJrz9YNwGWXYe93DqVOBaFbqQThbBCCMDHaII6R0E/rRMSShGVcj7+JmnoAEh/w43hTNPiaVOeOpghMMjvsSWPplvuIj7k7YU6Gw4eDynInXvdE4MELiTc2Pexd1IOn9j2A669trt+CLUtt5VBivTD2Oh587oUkOCu6FcB4V9NjyYmI5SOVDhBWKHUrkm9yw8SEZI7gK++7z5nwjhRwJ9LwpRR3wuASOpbAOI5vgLX2xKgfiLM7fYsW4Ftf/Qv0tkm8RFJbAgUAxt6cwD1f/gbenZ42hzwQwAJYFMkFmHgnB0CMPBdASCHjmeNAYO2VDZPkGcuioQAMXxnJfRjDELY1hygsHbABYsFGCrwCzrUnSI/5MGnn9j/EyMc+jLmXt9bK16JqW6AAwPipSWzZ+wzefW/aciuoxL8+FSTDniiZ7ZBDD2AkFXEhvDyFiNUW0ofeShdg4gRZGTBxlc/pTrjLACC6EwAyeDzuJJkqjtO4O4nK0HwDRFHWQx+/HQ/ed5vjhrSX2hooAFA9cx5b9j6N6tlf2wFaQAjS5gMMSN04u0yA8Hwr3QeTJKMBYBJta3InZFu3O0m2QQoPcrPM9sK63XO7sPexHbh1fWsvViuitgcKEEHliWdRPXMugkgKDcO1RJIea3F2qAarUitEjLyyYML7VQZMeHot7iTOL+hO4nT3cMez9iRpJyzTv2gBvv3UCHqvbt94iSQFSqTquXew40v78bPq6RAmHrciiQ8+7NW35MAFkOSPeyjD5YNIktVoMGH5ud0JqZfpTuixNVWM7GAsvXAGlIH3L8VXH79PYSJIgUI0dWEaO/7hWxg7+gsSS0kXvvHZH58B8bkYI6egCzHyPRCh7TckTKKtEyakndlxJ2y4E5Xj57vvT/8IfzVyh+NmqBQogob/8UUcGH3N+KFrGrSlKhKM9eWXDRFeJ+5BM8CEppXpTtK6nmAsS0v6EACfvP92jOz8kHgrVKEUKA599vmX8cz3f5IMfwB7GCSJAobtFlYtEOH1aE8CoazR/izCJOyRHyb1uhM+bPIFY31A6VvYg2cfvx8rV7TnYrUiUqB4tPe7P8QXDv4ggUQaSwmIc8lupwhkCkGEVHBBhJe12ryEMKHAiPMyYUK2KQxgTOMWdyfhQbJALrmWcLHagS8/qPGSnGqrpfdF9eidG4COy/CFf/2eEUsNEC7VRyVcbG/MAElxkuRPepwUq5gFa4KIceAI6DYaTGDDhMoqw10FbY/1xTljxNOF81FtWH8DnvjsRzCvq70XqxWROpQcOjD6OnZ/7QUASOMqbBgUHqR1siBTVFZcxDoQQCLVIXkXFSZSedeDLQ1beDk6fOHp8THNd7gTa7iU1AmMtj5x3yY8tLO9vilchhQoOTV2fAJ/9vffwNT0dDLcocMgULBQSUHceD8DNDVBhBw4X9iyYOKrkxcmcV6BoQ7NM6Z4XXBJ2nHFT1KgdM+dg099dDN23rVWuChVlhQoBXT41CR2fPGfUD3769SlGEAh20TFICPWLAkirjZnAyZA/e7EBRojEAsGFGOIxOInRt8C9F99JQ58cRh9V7fGP926FFKgFNSpM+dx++fDpfoATLCQYRCXnZRjMJ8TJN4XMHCBiaVnwUTaLxkmedwJB444nUzPSdtMfpbRLN93dQ8+vP4GfPSudehbqMHXeqRAqUESVPgwKJYFklzuJLByy3IjyaHLdUjdkPbzupmsoQ4pK605idO908SkLT7cSc9PviEcpfcv7MHdm1bjTzasQt/CKxwXpCoiBUqNqp59BwdGX8fokZ9j7NhbYaIwDPKp4jxwqIgbiY6twzwg4fnS/mwNdcg2053AD5T4N0z6F/bgUzs34uYbrlWQlCwFSgkaOz6BsWMTeP4nP0X1f88VBoskXqVWN5Ik1QuSrDakvLzuhJYjaXG9vO4EQDK7Q9uK8/oWzsen792IuzesEi5AVYYUKCVr7M2TGDvyc7zyxjjGq6ctoGQNgXJrNkESp+UZHgkPOVC+O5HKVgDx//30L5yPh+/diLtvU5BcbClQLqLGjk9g7PgEDr32XxivnjYzHSDJBE7GsCZJqgUkvuOsmIlQ9mK4EyNdgldct9KBNR9Yjm23rcLdH7rR0XlV2VKgzJLGT01GQ6MTGDv2Fqbemy79HIVAwsvU40qE81qQYOUKuROpnnDOtTdci4Hlvdh48wDWDC3zdFx1saRAuUQ6fGoSr775S4we/UUImAslAaYoSHzH9cLE0W4eQPjcSazBZYsxuLwfG1evxJqhFei+vNPTYdVsSIHSIKqeOY9DbxzB+KlJjB6fCIO7F0N5XIkrz1cmCyZRGQkmxj6HCSnf/775GFzRj803D+EPBpeh/306Q9NoUqA0qKrn3sHo0RP42clJvPIfR+oDjA8cUlq9MJHa8M3MOIY687o6MbS8D5tWD2DN4DIMLuv1dEzVCFKgNImmLkxj9NgJvHpsAqPHTmD85OnsSrHyDoNqmQliMAE8Qx0JJqytdR+4FmuHVmDNwDKsHdQ4SLNJgdKkmrowjcOnJvG9/3wThydOYfzk6eJxmKxYiiuP7eeCCd0nZYauWYy1gyuwefUQBq9ZhO4ujYM0sxQoLaKp6f/D+MlJjJ+cxKE3juDwL982Z5KyYic+eWACFBvqLF24AGsHlmPTTSsxtKwfS67SOEgrSYHSwjp8cjIcIh09gbFjE5j6zXvFG8mYAcpyJ91dnVg/uBybbxrE4DV9GPrdRcX7oGoaKVDaSNUz53HotSMYr/43Xvn3w+61MFlBXDo7Q7cBgEoH1g0sx7rBFVj7e8uwbkDjIO0kBUobq3rmPEaPTkQu5i1U/+dsmOGJrXTP6UR3VyeWXhV+zb/78i50z/ltLL2qB2sHV2BoqcZB2lkKFFWiqQvTOPTGUQQzM1gSA6OrE1dEEFFQqLKkQFGpVKWp41J3QKVStY4UKCqVqjQpUFQqVWlSoKhUqtKkQFGpVKVJgaJSqUqTAkWlUpUmBYpKpSpNChSVSlWaFCgqlao0KVBUKlVpUqCoVKrSpEBRqVSlSYGiUqlKkwJFpVKVJgWKSqUqTQoUlUpVmhQoKpWqNClQVCpVaVKgqFSq0qRAUalUpUmBolKpSpMCRaVSlSYFikqlKk0KFJVKVZr+H15884EFyy5uAAAAAElFTkSuQmCC;fontSize=18;" parent="33" vertex="1">
                    <mxGeometry y="30" width="168.88" height="175" as="geometry"/>
                </mxCell>
                <mxCell id="32" value="&lt;font style=&quot;font-size: 18px;&quot;&gt;Sphere Grid Signal&amp;nbsp;&lt;/font&gt;" style="text;html=1;strokeColor=none;fillColor=none;align=center;verticalAlign=middle;whiteSpace=wrap;rounded=0;fontSize=18;" parent="33" vertex="1">
                    <mxGeometry width="175" height="30" as="geometry"/>
                </mxCell>
                <mxCell id="34" value="" style="group;fontSize=18;" parent="1" vertex="1" connectable="0">
                    <mxGeometry x="75.37" y="686.75" width="154.26999999999998" height="101.5" as="geometry"/>
                </mxCell>
                <mxCell id="27" value="" style="shape=image;verticalLabelPosition=bottom;labelBackgroundColor=default;verticalAlign=top;aspect=fixed;imageAspect=0;image=data:image/png,iVBORw0KGgoAAAANSUhEUgAAAxoAAAFwCAYAAAA/sA1HAAAAOXRFWHRTb2Z0d2FyZQBNYXRwbG90bGliIHZlcnNpb24zLjguMywgaHR0cHM6Ly9tYXRwbG90bGliLm9yZy/H5lhTAAAACXBIWXMAAA9hAAAPYQGoP6dpAAAIGElEQVR4nO3ZoTKEYRiGYWv2BJySM9DXjCxoDsEZGGUrmSQLmqAJjOMQP22DQrjNN7P/deU3PPWedzXGGAcAAAChw9kDAACA/SM0AACAnNAAAAByQgMAAMgJDQAAICc0AACAnNAAAAByQgMAAMgJDQAAILeePQB+OtrczZ7AQmwvj2dPYCFOz65mT2Ahvl6vZ0+AHR8NAAAgJzQAAICc0AAAAHJCAwAAyAkNAAAgJzQAAICc0AAAAHJCAwAAyAkNAAAgJzQAAICc0AAAAHJCAwAAyAkNAAAgJzQAAICc0AAAAHJCAwAAyAkNAAAgJzQAAICc0AAAAHJCAwAAyAkNAAAgJzQAAICc0AAAAHJCAwAAyAkNAAAgJzQAAICc0AAAAHJCAwAAyAkNAAAgJzQAAICc0AAAAHJCAwAAyAkNAAAgJzQAAICc0AAAAHJCAwAAyAkNAAAgJzQAAICc0AAAAHJCAwAAyAkNAAAgJzQAAICc0AAAAHJCAwAAyAkNAAAgJzQAAICc0AAAAHJCAwAAyAkNAAAgJzQAAICc0AAAAHJCAwAAyAkNAAAgJzQAAICc0AAAAHJCAwAAyAkNAAAgJzQAAICc0AAAAHJCAwAAyAkNAAAgJzQAAICc0AAAAHJCAwAAyAkNAAAgJzQAAICc0AAAAHJCAwAAyAkNAAAgJzQAAICc0AAAAHJCAwAAyAkNAAAgJzQAAICc0AAAAHJCAwAAyAkNAAAgJzQAAICc0AAAAHJCAwAAyAkNAAAgJzQAAICc0AAAAHJCAwAAyAkNAAAgJzQAAICc0AAAAHJCAwAAyAkNAAAgJzQAAICc0AAAAHJCAwAAyAkNAAAgJzQAAICc0AAAAHJCAwAAyAkNAAAgJzQAAICc0AAAAHJCAwAAyAkNAAAgJzQAAICc0AAAAHJCAwAAyAkNAAAgJzQAAICc0AAAAHJCAwAAyAkNAAAgJzQAAICc0AAAAHJCAwAAyAkNAAAgJzQAAICc0AAAAHJCAwAAyAkNAAAgJzQAAICc0AAAAHJCAwAAyAkNAAAgJzQAAICc0AAAAHJCAwAAyAkNAAAgJzQAAICc0AAAAHJCAwAAyAkNAAAgJzQAAICc0AAAAHJCAwAAyAkNAAAgJzQAAICc0AAAAHJCAwAAyAkNAAAgJzQAAICc0AAAAHJCAwAAyAkNAAAgJzQAAICc0AAAAHJCAwAAyAkNAAAgJzQAAICc0AAAAHJCAwAAyAkNAAAgJzQAAICc0AAAAHJCAwAAyAkNAAAgJzQAAIDcaowxZo8AAAD2i48GAACQExoAAEBOaAAAADmhAQAA5IQGAACQExoAAEBOaAAAADmhAQAA5IQGAACQExoAAEBOaAAAADmhAQAA5IQGAACQExoAAEBOaAAAADmhAQAA5IQGAACQExoAAEBOaAAAADmhAQAA5IQGAACQExoAAEBOaAAAADmhAQAA5IQGAACQExoAAEBOaAAAADmhAQAA5IQGAACQExoAAEBOaAAAADmhAQAA5IQGAACQExoAAEBOaAAAADmhAQAA5IQGAACQW//18Pzk9j93wM7bw/vsCSzE9v1i9gQW4vnpc/YEFuLl8WP2BBbi5n7z642PBgAAkBMaAABATmgAAAA5oQEAAOSEBgAAkBMaAABATmgAAAA5oQEAAOSEBgAAkBMaAABATmgAAAA5oQEAAOSEBgAAkBMaAABATmgAAAA5oQEAAOSEBgAAkBMaAABATmgAAAA5oQEAAOSEBgAAkBMaAABATmgAAAA5oQEAAOSEBgAAkBMaAABATmgAAAA5oQEAAOSEBgAAkBMaAABATmgAAAA5oQEAAOSEBgAAkBMaAABATmgAAAA5oQEAAOSEBgAAkBMaAABATmgAAAA5oQEAAOSEBgAAkBMaAABATmgAAAA5oQEAAOSEBgAAkBMaAABATmgAAAA5oQEAAOSEBgAAkBMaAABATmgAAAA5oQEAAOSEBgAAkBMaAABATmgAAAA5oQEAAOSEBgAAkBMaAABATmgAAAA5oQEAAOSEBgAAkBMaAABATmgAAAA5oQEAAOSEBgAAkBMaAABATmgAAAA5oQEAAOSEBgAAkBMaAABATmgAAAA5oQEAAOSEBgAAkBMaAABATmgAAAA5oQEAAOSEBgAAkBMaAABATmgAAAA5oQEAAOSEBgAAkBMaAABATmgAAAA5oQEAAOSEBgAAkBMaAABATmgAAAA5oQEAAOSEBgAAkBMaAABATmgAAAA5oQEAAOSEBgAAkBMaAABATmgAAAA5oQEAAOSEBgAAkBMaAABATmgAAAA5oQEAAOSEBgAAkBMaAABATmgAAAA5oQEAAOSEBgAAkBMaAABATmgAAAA5oQEAAOSEBgAAkBMaAABATmgAAAA5oQEAAOSEBgAAkBMaAABATmgAAAA5oQEAAOSEBgAAkBMaAABATmgAAAA5oQEAAOSEBgAAkBMaAABATmgAAAA5oQEAAOSEBgAAkBMaAABATmgAAAA5oQEAAOSEBgAAkBMaAABATmgAAAA5oQEAAOSEBgAAkBMaAABATmgAAAA5oQEAAOSEBgAAkBMaAABATmgAAAA5oQEAAOSEBgAAkBMaAABATmgAAAA5oQEAAOSEBgAAkBMaAABATmgAAAA5oQEAAOSEBgAAkBMaAABATmgAAAA5oQEAAOSEBgAAkBMaAABAbjXGGLNHAAAA+8VHAwAAyAkNAAAgJzQAAICc0AAAAHJCAwAAyAkNAAAgJzQAAICc0AAAAHJCAwAAyH0D6+og1uQjk8wAAAAASUVORK5CYII=;fontSize=18;" parent="34" vertex="1">
                    <mxGeometry y="30" width="154.27" height="71.5" as="geometry"/>
                </mxCell>
                <mxCell id="28" value="&lt;font style=&quot;font-size: 18px;&quot;&gt;Channel Irreps&lt;/font&gt;" style="text;html=1;strokeColor=none;fillColor=none;align=center;verticalAlign=middle;whiteSpace=wrap;rounded=0;fontSize=18;" parent="34" vertex="1">
                    <mxGeometry x="4.009999999999991" width="146.25" height="30" as="geometry"/>
                </mxCell>
                <mxCell id="35" style="edgeStyle=none;html=1;entryX=0;entryY=0.5;entryDx=0;entryDy=0;strokeColor=default;fontSize=18;endArrow=classic;endFill=1;" parent="1" source="27" target="31" edge="1">
                    <mxGeometry relative="1" as="geometry"/>
                </mxCell>
                <mxCell id="45" value="" style="edgeStyle=none;html=1;strokeColor=default;fontSize=18;endArrow=classic;endFill=1;" parent="1" source="37" target="39" edge="1">
                    <mxGeometry relative="1" as="geometry"/>
                </mxCell>
                <mxCell id="37" value="Pointwise MLP" style="rounded=1;whiteSpace=wrap;html=1;fontSize=18;" parent="1" vertex="1">
                    <mxGeometry x="675" y="729" width="145" height="48.75" as="geometry"/>
                </mxCell>
                <mxCell id="38" style="edgeStyle=none;html=1;strokeColor=default;fontSize=18;endArrow=classic;endFill=1;" parent="1" source="24" target="37" edge="1">
                    <mxGeometry relative="1" as="geometry"/>
                </mxCell>
                <mxCell id="44" value="" style="group;fontSize=18;" parent="1" vertex="1" connectable="0">
                    <mxGeometry x="862.5" y="624.9399999999999" width="197.5" height="223.12" as="geometry"/>
                </mxCell>
                <mxCell id="39" value="" style="shape=image;verticalLabelPosition=bottom;labelBackgroundColor=default;verticalAlign=top;aspect=fixed;imageAspect=0;image=data:image/png,iVBORw0KGgoAAAANSUhEUgAAAL4AAAC3CAYAAACse+RVAAAABHNCSVQICAgIfAhkiAAAABl0RVh0U29mdHdhcmUAZ25vbWUtc2NyZWVuc2hvdO8Dvz4AAAAtdEVYdENyZWF0aW9uIFRpbWUATW9uIDE0IE9jdCAyMDI0IDA2OjM0OjM2IFBNIEVEVLHwrfMAACAASURBVHic7X1ptF1Hdea3z5VtZFmyJRlsS7Y8YGzJTAlgDB46zIMTGztM6ZUBEhLSnSbgQGfoZPVKd1av9BA63b2STneTdJIVYqAzEJI0JLCAYAgOxhjHxo2NJ4wtD1i2hPRkDe/dU7t/VO1de9epc9994t33nvTu1nq659apU6dOnW9/9dWuOucSMzOmNrVVZs1yV2BqU1sOmwJ/aqvSpsCf2qq0KfCntiptCvyprUqbAn9qq9KmwJ/aqrQp8Ke2Km0K/KmtSpsCf2qr0qbAn9qqtCnwp7YqbQr8qa1KmwJ/aqvSpsCf2qq0KfCntiptzXJX4FixAzMPIAyfxOH9d4PDATCAucP7AToMACif9pk9/GRMJ59OzVqsOf5MrFt/Dqg5BRtOuQiDNSdO/gJWmdH0CayFWzs8gKdmHkA7txMH992FQwcfxPDwkwABIEJDTQY6AYyIbtvQtVZnsy+YTxpswknrz0Yz2IS1a7filFN24IQTTp3U5a0KmwJ/DDt44HHMHd6Jg/u/gf0zD+DAzF0YDAaAsnWmbSICUf6eG5cysE3ZZRqzT+N0nNvPQDNYi+OOPxUnnLAV69dvwwnHb8HmjTsW4WpXh02BX7GDBx7HgZnbsO87d2L28E7MzT6hrA1QYvFotcajptG8tf0j07juDPF7dgK3zUBgYP2683Hyyc/HmaddiuOm8mikTYFv7PChXXjwwb/Ak49/ASc87YQIdhoBVAYs24s1CfhH2rBySwTgdtv1Buwl1FwIaJkwGKzFGae+FJs2PBfP2LT9CGtxbNsU+AB27/46du78GPY/dTcioxPWrFlTSBIP8L5GI2TgH6mVcsd9spdR1iHawDo2aBloAWxcfwGefvJzcfbpL8Xx015AbVUD/5HHvoD7H/gLhPAdcNLlzFGnD9b4gNdCGkmA3+0LxjV2AC/r0GX/uB2YEQJHJwAhgJITEJrBWmx7+iV4xsnPwRmbLjzimh0rtuqAv/+px/HYrhvx+JP/gIMSUnRyog78hVhDDaiD27LP6DqGfmeu9jZ5kEvFfj0MbQgIQAQ9CIHjdpucYMjAxhPPx5mbn4vzz3gJjl+z9oiu8Wi3VQP8/U89jvse+ms8/PiNGKxpIkvqoBGwYOpj/JrYqYG3aQgAjWR86hxsyuP+HqY63jDXMRS5k67Psn9gik7BcbsZrMVFZ7wazzv75SNqemzaMQ/8Pfu+hfse/ji+vfsfkyQoworcDTNSQxgMuoxvh5I1UAuYG6IO41tlTpX08nO+22JljnxXucNRKjEi2weVQgb4qRcYDgM2nnguXrbjh3HKutUzN3BMA/+O+z6Gbzz8N2gGTREPL9nebzdNg0FlgFqG7bsAjjD0Uiem1SP71gqHYnbzAX1HlzePmdGGmBpBD9X6nL63nGQQCG0ADg9bNM2JeMG21+IF57ysc85j0Y5J4O97ahc+c+v7cWB2NwbHHQdQ04mFi3WVN0DUYDBo5pU2rq9gw8GUZQ4VTmIdxKfXapLLIONtZAuuWNuGNOtLWfYAqveDAj9+nxsGzAZgGAinb3wWXnXBW7DxpGOb/Y854N/98Bdx+wMfx8yh3WAAa447PkZsuM7uNWuaAZqm6Z9+Ui8KmuoYvyEH7D7wo3dfLsta2WsQRFL5meMQAlruhjuDsH4B/BAYh4ZxDmDIDQaDE/His1+NF5/7fb1tdLTbMQP8g4efwpfu/lPc++2b9KbGePzx1VnWPqVOAJpBg8j3KbrCFkJwR5IpSUDcpGUL1DmLlz0EzgwuZRQ11Hr1EHwtmZnBzCAQmEhnd0XeWNkj3w8PWwwDYQjCkAdoGTjj5PNx5Y43Y9NJm+snP4rtmAD+4995EH97+wew//AevaHMBDSNm4iqLRazRgwwhwxcZeMuuDuShfJ2Bn6Zp4f1NY1ROpRkGDsUigj8EILZGV2KidKgVwa+GfjDwJgdBrTcYIgGw8T+awYn4tJzXolLz7ui3mhHqR31wL/xG3+Nr3zrk5nNQNqlN4MBmsFg5PHx6hlsgDJoGlCSKzV2rgHUM34EPzStHOB6x7HOVB8EF+xfKcd+Z0CBX4ZsyToBMvBDYv2WSSXPUD8bnLnxmXjDRT+IzccI+x+1wN+z/wl87Ku/i90HH9NwXQ7hRUgNBmt6181wWuYYJUHMIQAcDJrI2ilvqcPjtgEz5W0CK+PXgK09gHEiW3aN8a3MqfUY1pKfoQ1tUVtz7ZosbROvZq5tMddyZH0mtPDgnwuEN2y/Fi8+9+LOeY82OyofRLn9oZtw4zc/ie8c2IOAgdOsdmIqDAYgzjzKYHBIep0lUkIgStNTnBgzNGkSKoGT4cAdz2KkkFleQGA0oDhGkGNYjpFzMoihA1MndbRMZIlT4DuD3kySWTlEUDKwZl2MRfibY5qmAbWtOi8zowHQgOMfAX/+9Y+iZcZLz3tx9d4cLXbUAf/v7vwEvvjAZ5KOHxi2z9ELucHHYQAwEBLYM7tnCBNYgSuyhNGgYcv4DLC4SQZcBK+DE0jkFlEuV/cV0ocLqQQDXiCds+gR1BN85KhEeXdmutwvV5++c/I0CcemwXFDGfgDAMcNGvzJ1z4KBuHS845e5j+qgP/p//cJ3PDAZwFqUkjOTs3bm0gAEcKQwIldBVYWeDFVQG96gUCgFM6M2SkNTBPTy7GFQ8i+AKAxoCeYySg259R9UicyvQOZT5FUMNfixwMl8wc04ALyncmvjrPIcoY0nqHYdsL6AwABjBPWAB++/aM48YQT8T1bn913u1a0HTXA//zdn8On7v0MmsGaCHrO7K5Mn0AR0h1do1IiwYeyE5Ra2bJ+ZvyKU8Dq+whOWYtJELBQOj73MGXvkAfLVKlTcgZmPz7gbhRIjyxkEfNoxvfpqSSODhPAaQJMZqJJ3WgAxnEDwvFtwAdv/Sg2rj0FZ2/a2nOGlWtHxeD2pvtvwp/c/mdoQaDBGjDnkKVleUZclksAqCGsMRGdLtN7UAmjA8CgGaRJqHq4UgAu25qWymwAP0YoAG9lSxkh6gBdokNeoc8bGmUOaTzTtQ7zm30hBAxD0Eku2c9oUqiTMAwNZlvGgTmAaR3ee/k7cM7mLdVzrVRb8cC/+9v34rdv/EBcX0IDgAYdTQ9kHS9GRFizZlCAA6hFWMqQ42DQ6Oxrx0GK43w4M/cEEfg+30jAaxm5/HIOQK8N5Xb3OsCM1sbyR5gFeAgclzwgt2bQtm7i+p4U9TkwG3CwHQB0In7+ip84qsC/ooH/rScewn/74u/hqeEsWiaA1igCVOqkkCTgAdE0MY7fP+GUv2fQGODrBJbkySzbBa7X6g1R5/huvqiboeVZJ+IKoCvXQTUnSFZOYo1pzIxh23bIRXvZVLsWDWaHjANDwsF2gMFgHX7+8rfj3KME/CsW+LtmnsT7P/972HVgX1pPEoGskOAE+k7HHa1p/EKzEvB5uwAd+Ti+nb0tWbWhGtvHPPb4Wq9g65TLsT0EsqZ3Uslei5c/KI4VxncOUVjn5jMwNxzq2AmQCcHsBHmtD+HgbMChMMDBdoAGJ+JfvezoAP+KBP6umSfxH2/4few6sBchzSTKTCwD4ADYastAMW7HjWbQYCA627F+3i7lh9zqwZqBrrWpSSHH0GZbQN4QjFQqztdxhFK/G0fgBDXKA2d3zVpuvgYbvQ+tncQa34bDFgy7pj+fUaJpAv5hG3C4JRwMAxwaDtDQWvzKy9+O81Y4+Fcc8PcfOoB//anfweMH98VltOlpIaYGAKUBnz+Gig2CX1PfHZgCMkC0x8vnmorUKQFecwQk0Mfz09jyyPY21iGZzfEA/CRa7kFy3b0zhFAHfq0HsCBoh218mAWW6SVsHL+LA7RtwFxgzIYBDoUBDg8HIDoR/+G178TpGzZVz78SbEUBf/+hA/h3f/cHeGDv42hDWj0YYiNTejuZu2nUvYkChEHToElSR4Db1fSV7wQMBoO81gbdnsGvqoxgh8lHhOR07ABfyiG37MHt7x/c2nQqHMHVDwC3oUcKjrrlhLZt9aF1yV3KHHGKNjDmhgEBlMHfDnDexnPxa69++4jzLK+tqDj+b3z+Q7h3zy603CTA5wkqMmvcAUTgFfePzP/gBhxcSpYvhBiXt+tp5HsKIbJlfLtuJ3U4eUlBnNqX7czW6TsjH8/iJKxLFggwabqIAjIh1hkcpxPHQ+T6zNiA834b9bLtUOf8bEwNAtoMfLN+P10GmGDeBBHv0YACjqMGgRj37H4An777q3jVBS8Yea7lshUD/A/f8mnc9vjDCNzoBFWUOnG/DlMTfVMZyZHdKT+lJbiljJFjRzoDx7U2Ck6pQ+kI4gSA5gUIDaDnzqweARkgwI4gJYrPyZZjCnWu9N2eS64ny59cH1jnE9KA7izaom41aSNRHpjtPCTPnw0C1jTAcUz46NdvwHNOPxenb9g4zxmX3lYE8B/btxt/dc9XMRci6JXtDV1xWkkYAeBFjwBDvwNAQ2hC42RJXmxG7jhCZHqVPNSAGzmGVFsHYW+2ADWDT9YqogmkAI51Mr0LxCEMwxvwg6FjBcD0MgS49TvGKbOEYtNXNGB9Sqzg+2ICrrTWTQ7KdWUXyo6R3VoGww0Ya5oW+w7vxYf/8XP4uX9ybc9Zls9WBPA/cNMnsefQrGH7zPTS+vLCJyCByHYALsIT/6PQIC7ZIWVLEHRpQiPLEEw5egYmfaowgom8Poc/xsoWIk5SgJws6p7HMHzpBEDU5gwQhY6zOEc25YCyXJJzBf3GZgtGJtWMEDgPjD3gs8QJ5kw5sGzBH/Clh2/Dp+46B6/Z/r3VMy2XLTvwb33wHnzhofsd6OXPGfXcIhHbNgtLVEVAn1if8zFBFp4ZOZGB3O1NHOuCjOMk4BlZZKVJ2Rt4J5F8hROogzKIG02Pi+USuI2jSX+SQZ+lW1CpY/43TthpZulNiYycMbJGxl0wPQFRmkgkl58QcMKA8Cd33IDnnLYNWzaunIdYlh3477/xbzHXNrqoqm9hlQDBpcHyWAYXALTBPAyS2Fc7igQg1c2yylIcgSj1Fplps0CCkT0FkOUvgUPlkFnKIFJGvxOrM+nAlITdTe9CvkeQ8YGVRTlSla6XgcA5uiR1T5Tfy/axkySE1N755bRe/ojkiTEBcunZhQIODPfgL7/xFfzzl7y2esblsGUF/h/c9Fns3LcfgePrP0LPoiq5GWXHXGr7mBYTgomQiDPpzbdABwyTpv1NuqFmwOqlTgKodksyQM4x/4HKF6PHhc2dxIHZn53E1Rf2WBSfacCcKt9U9kEcAbm83Et2B71RqjVmyUNd76v0obwtZnsIIsYn7/kSXnnuc3HBaStjYmvZ4vgzBw/gzdf/d8zMtWBuUldZz0sUX/lRpmXjTtqaNPsq6T727suwgCVIHD/vsyq3PMbHNKDbTZMcywLdPZBeDJCRewxAJsJMmQ7Q5fxAPNpNgFE8B9tlC6Zn6rQFvDEHtG3rAwzFlQrYAxPm5tr0zp78pjYJVLQAhgE4vjkVH3zru7ESbNkY/9c/+3+xb7ZFCCkOPsr9qElhwGz+ZcLS3aZvqevlxOSctDjM/thZSMw9dx2UtEqgDMIuAydnMN+p+K7amjLIQeXCNOMQFrSIr/h2TG/Z30RksoMG3xtIm8gg3ToOoRiz+OuTMwXOV6vtbj7zQsE0wWgnvTo9MWH/3G783hc/g5+87JVYblsW4N/y4P343AP3I7SE8scNatYAsO+4tDpVE8zOKJuy9vROIT2L7SXYFMN5qcAIoEtZ8t0PNhPYE8DEaYk4ApriwytZk5dMbnoHFzrNn0j50xydL884FVIZKMrQ7zJ2MM6AJJPKCTALdgDu3rHRnTVHkV7sT+/6Iq58zguw5eTlje0vi9S59g9/B4/sm0Hbkgz/RyKfmviDavEL9FNvLPldALDmuIHexGhsHKALehgwx7eo+eMkf5ZMo+QP0Mg8gHEOsYZMXgN4yddU0sxld9hb8xgpI+XGRy/t9VInH4pPcYa2HSKXns2TVVrKEOJyZpE5zHmdVXxRLTDXEmZDg/PWn43/es3bsZy25Iz/4VtuwsN7ZxLbAwAB8ywbJzSRUchLIi7AnwIycV/wbCOfwkm5W7c6WqIYBdjtPAHZ463G9jpeoz5O0qQ6mI5KZY7JFywwYfen8ygzx0cCvWPm+tlLFEKmYp8MglX/G6dry/uijVY6QtmSNR4j/f/uvQ/hKw/chxed88xOrqWyJQX+voMH8YF/+GIEfUtu36iBLSet0Hl7cAJ7EuqxHAAgRtt6Jrd5RCtFLFgnKBnQD5rtsM6xbRGJsWxsozpuNlalTPzeWJ1P1lGAxsg0x9YcUkSHOk4iINfrsjLGlicOWka+QGmcxLnSGm6VbtpQCpkYvxkblLc1yjzG9f/4+dUD/I/cegv2HR5G0Be47DMGoCuSLe7JHpsBLRH34AqX/TmfPZwrINfTOIY3wLBrhYx0EYfKUR3SNF24putr8qA3MCVmlgmq/BC7DMJ1aYNeg4RhTVTIsrpclwW1GdTqJBnla1cHSb0js+/xcsOxaaw0Z2LeSu2aH6Y3Tml37nkYn7jjq7jyOcuziG1JgX/9l28GD0njYPIs9SjsW1b0A1h/lHuVBjHkn+vv0z6CcSJlu7ghYdWS+a2EyOmZNeXGEkWgQkCeHFHi2Qo4Nr0Am54nDR7TVEN2koKVFeCQwSnrcElnrFmm0VguXZ3evcGhM6EnTWafcCNNy69Kycwvhcen4uw6Hn9/xWlBjOu/9vfHPvBv/uY3MXN4CG4lOtAvb5wRMAA5oOUxAXfyAkCQaUubx2iR6BB5aBadyAw+BzIyzYCOnxnA9qQs9VJnJo1+5DU4UEBL7yAAIYrP6cI6gOyzUoTkDWcF6MFpMV10JFbIkZKzjkFYnN4sbyh6BbvsopzflZ7LJ7Oeq+Qo0y+6MgjA4wf34W/vvBWv27H063iWDPg33PdNtEN5Yh8uLFYzS9SsbJdZqWRfe/O0RzCsnj0tD3DdIFeYkKAaVaSHvYkKKLNPQCzMCwZCAKjpMn1mZYWldwBxpMIBkMA9qhdoGGh1lad1sFiOXiqLw0sPJdfOeRlzKpfjhWhd1PS8bBstD3TN7dB7mrsSrc3f3HXbsQ38j976NcyFvPCpbBjqOY4gcfB0+yjv0eXBChIzm9o0pqv2rJ/BTpm9jKNwQAqMI3pdYlsBkXWA/CWDmADDzNC5BMv0GfziOEkSpe+Nnkc0fXL3oheITiXtmkBf9Aj22qDlpiuwvYHNlC42jj2y61PSQmTqY02clJOTyvnkfus1J+e9fddOPLLnySVfwLYkwL/pm9/C7gNz6fUU0C7UjZn6kA+gMUvKSV4YRfkYAmLsjQMoTVUO0jt1XLkiX6zWNTtj3TjesACHTOLsJJTy2LGAxlYTyOLMraFkNg5QOAkhM6DOJlvnkHPq9eReQB6Y6cgg4wB2CbLMQ4iJE4gMy05gz2Pycz5SewFi5whs2zJTVvzf+hbFIMBt3955bAL/09+4H0OusL3VitYJiuPZRB2ANBALKZqRwJ4Hbmk8EAxoKGPYaJOIh7StEQfKs8mw+U1eAwu9HtsT2esRsKtGW6ADyEpLuY4M7HiuwLmEulzKoM6jjtzGXq4VTsBx+Xav6U0Uh6L0NBnyD2YDacCL3K5ZfwEE/M3Xb8Xrtz+//zwTsCUB/p/e8rVIyJxBzwVAaibdfG6vdGQISY/46XywiZUL4DhGXXTVIoxjGVCb+5De+ppvHGT8IKRegLzmABzy29QAq2oBCQNlB4g5eh0g9Tg1ZoewrkgdGQcUUkchLxLJKH9XL9M089we1wbiA+0wMg4NGiC9IKAma53ceeIRPLznSWxdQtafOPD/4f4HsfvALNj+8iCPbtB4LznKlsCgpomjRU6/2iqOUIJZGJEBbtLED8lanTxZ0whARYlYBzD0p/M0oleNVs7REa2xcwCpchkJsvo6OwB0QFpzADtABpvvJp82AHIbZEIgdVgawwny3MXoAATMFbkUBsIwCdtmEHtRKu679rTxPH//rfvw1mMJ+J/8+r3x+U1GBfgZMGoEEAdwaDPY09oZSlIGprsXMDTakFm2CAvFtTE2rMhOPmh0xPb5wfY0uXKiXedzgPzkkzl2gQ6g4iSdxB/vncM7gDkf2zPlaFDsPLITOBklhAHok2rjGhPpcpGoRNv4GGYziMRCtjXTJwGfuPM2vPV7lu7HJiYO/I/cfAfaIIAhbRBvApgQwR7a+MdBGZsAo+OhgzeVzgbARADkdSQSonNypyKDTO8Bieqk8x2JA1AgoKn1bAtxgKSX5aEaYti3N8Tjx3SANKixcwKlE0DaVauSBqddL65cVTTm/Ly0cAmH9HIrIoAG6f37jZNZ9+99Ao98Zw+2nLI0qza7P9+9iHbjfQ9iz/6D8eVQIf6KdkhaPwQl9LiOezhEOzuHdnYW7dwQoeX8Hvxg3rwQ0g8VB8TfcmXo6r827WvNtryQKr7lN6a36eZwkR40HfmuhfzH5T6tn9kn24DWXcDs/yg9i5DBYn+RkKXuKY884CGPaOob5vR46vxZacHJNfQapV1Crk+MtJk8yWn0R6FH/Ok5U/3lntjfMQghvqWtnWsRhulh9jQeaRrg/9x2yyTh6GyiwP/IzXeg5SZ5PPQztECYa8EtIwxbhNlZhNlZ8NwQ3GbW4wKMCmLjBK04UbrJCvbgwRzzyA1KDiB1UgcgTVfnAMZ3AAvsMRwAss8COGSwxP1I4DcOgArgjAMFBS+5a47VTQ6Aeh79EWhkwgi2bN8U4L4/zv2SOpY6E6Oda9EOh7HXJQAccMP9d08Sjs4mKnU+/rV7YzhMA/hJYQ9boJ0DN4MsaYyptCBoPF3D5PAjAxlQOimUBnoxza9AlHFClg4o9H46efDypzMOqEkgnbTJfb1KINFjDA0hVsOgImHMpJck29Aoa53siCDLnCyJTEuxWYCQ2iHWQ5YzkLazLUec0FSv+lXGBK6nMfJWPpHOGeaGQEPg9HsE3z6wD3c9+gi2nzH553InBvy/v/dB7HnqMJgb2EVNPBxG0LctqDGAT2BVdCM2DghObyepmgdGyMuwZGDG6ZgIaNHz8bE/wWVTOIDI4kYcVN60zOZFsFLFrB/6xwAMl5gXnQkbZqetOYC+n0fAXnWA6ALqAATjyJzbK+3QSSZCZ0JMLgdKFJQff2CpaaphRe/n20bQ+XJxSunl9DyJAAMQ2mEktzXHoSHGrY8+vCTAn5jU+cTt90QiD4nxWwbPDoHZufg5DL6/tJ/ah0ZUcaAsl0opITLHSBkdQxiZI1q1FanDWc5Y7dwirneR8QNzOsaNDaR+5i+YdH3JZHcMwCafyBWRQPb6RNsDhdyRU2r+Qpcrw2ZJKPLIS5qs6e38igyTbXm+jcpxRDkuyHWy45lysZtILgAIwxbt7BwQWtzyrW8uOhZrNjHG/9BNXwfaTEHcDoHhbPyUYLllTsDSuNU0RibJoYatbC9geoMmsZSPZwuRp86fOedH6gEYCE0GI1HcF4x0YspLeVTZkKkqAJLIEPL5OjpB6iyig7IU0OMSe0u4sd4DiESTs9ieLDeitJkulmMJCefvWi+QAbE0cz4nlddrgK0ztcisr/v0unKLSNyfwyzu2b0LS2ETAf7t33oYe/cfjjo5MBDmgOEcEOayTNCbXjEBknw2RbpxApaJneL40JjuH/kmCxnnhzwqDpB6G11rz/Z9NUkCpPKqDiA+zVb+yPkyeIwIR6n/9Qgy4OtxAIJP03CmANy1DWfJlRxdX04F6pFB+fWAphiTwpmbOLVxMTZQjuMshZDyaSmB8dj+vXh495PYummyk1kTAf4dj+6JoG8DaBjA7RAUht2MwTSlYW4AnvHL9566u0n1XiBk9pcJmT4HUIYUNk90pa/qK+cCyDuAe4lTcbelc8uOkaGivs3wA2BkFyn1f58DUM0BTD7hcHmnp9I44N/zCVNhYeXCe6wjOYdgueYay5t0yj1qSXxh9jDu3vX40Qn8fQdmQQGg2Tlg2MLzTsF4QO7iLXCsI3QYH4YpJc33Ao05ZhwHiMWlDtskxh5gtANwYs3qRFhHEkid+yfB4mX5CTixvh5AIWscoISoMDyMA7AeKXLRTpCJk5JBqK2M+8gVLHKWr5Cx+l7Sdd+wxT1P7MLLL9yBSdpEBrd3PPAomjYAs7Ogto1OoH9xVpMSgIgRmZ/j8mMKOQ0Md2wWjugGkt3+NKAsBpV58sbEr+2AUv9Il1mEIl1el9GW+0AuTdmsqGvvHICtazo21psMk+YBMCAOUMwfyKAVNn9xnTDHpXLcXAAqcwCSF5T/yvMXt0gH7/Y2sR+0Z3/K+vDL904+nj8Rxt+7/yBweA40bNE0a7r9GZC1sO1VKbOHMCMLq6fvTkPbNFNmTJcegIv0fM64beL9KY+MSwPLkmCJcyPpeomusC54i6HOCP4GkaUb5J5B77ypf8mUrJ7i81r5I71jNwSaG1kHu4X8idfLpolyD+DHBLYHEGeyZ2Kpsr1buepG6iibW80vzp8aIp1N988cOoRJ20SAv3PXPtDsYX1opDQGVIvrWhErbaQxBKCFxrc3veNTAhiN/WcJpEIW+Vyl9CDm+FYHN4HlHYCRB8fxHTgJ6KleAXnugJHTTeDF1MnWIZYpA2epstP/qR4qD9XyhdXkj7aVOoAF+GgHUMWmILVzJ4A+42tudg3wrr6mjuIIck8fndmLSdtkgP/YbtCwVS1cmrKHXDDyzbU6F8jgsCDVgR0pVop3acLpaw8q9DqAjAEQqHipEzQMKA7gQpppDMApCtQwQI24DKuj2PIs5Vs2lS12e/odwGGJRF5ksGt5ErqUUjmWM44DlIBVY7mMskcoZ2/dIWmDiiuEIn/m4EFM2hYd+Hv3H8S+PXujLgeiNi9AKR23sCqQb4ZgTxlfmNPceGGHIkztZEQpLcoadBygkUubdgAAHddJREFUyN7YAaRkJeMAQA5p2p4BySmSXspLfosHYlL9R8ofdRvfdlkeCsygAJU66j4hCSt1xnWAtAYkvzHCtlSlXVNySDeJu7tyD0AUV33COIaAgTDxkOaiA3/fgUMxjMlIN9q4vjXT+qrj9YZmVrc06VgPBiiWPeXm2yXBRTmmEm4MoA4HpIdIYh6NfafD9cGqVEnxbXnwBYgT1mDrMN2l0NaxtaqmHZxUg4nWuDYxsoTg2Rme/b3UqThAcjS57MzKppLCSM4KAulh+K4jUFHfvHPm0GRZf/GlDqcBHyPq5VDJo+hOly+hPTJ4gmlLw/j25iey6sogoNubyEbHAdLNNRM7dr8MFG3HrO/FTHWXay3lD5rM7BI+C5R7C81bsj9yO+Sey8of1RiuTWRCSyOk0pOwtI0wupK50/J6Tu2BEuSDaUd1FtYyvCMYJ5P2Fe5jny6U0QE/AfsOTnaAOxGNT4Ez46NCEsJqsvKSc5ecH9UzxzX55lrGl91OBiE5XWOcZRwHIPI3prgZfvlDfvpLgSsgIU7sHpAfIAFC2m/fkZlue5ZLVpeT+aQiLR0jURuYa5RLERaW88tLs+TcSjpyvBafj9NeUB7md+WbKplIUbwweUmXq7Q6LxEhtKF4n77vER7ZO9kB7kSA3wRt1ySjOaNY2kHAZ2SNamHjBADiLKw53LE/mXRbbjBdtu1JtGLIFSHp1WWbQG28CAsUlaAKKImYm7Al0ipQYoQmAz/nh8ql8ueFbBmm8fScOR0m3QC4kQawRMzZEeRw8vu1SCnTaHh1hjLd9E65arru0ss3lBYlZgisg3FQE+cL2gCEAZ6am+0ctZi26MB/6Nu73eSUmyEr9T7FGUTnBMgszSKH0rvxcy9gNaXpvmUwB6Q3gOXzEKA/oiDduGdS870hyA8dsGFWckDygJZ6NVBprDq+MfkE5EGON2ybwV+EB82nT7dO7OulTazg5s7xWgxxkV9Azi6f5a2qM8CYLHfw2d2mTsYlWETgx/fy792/H5O0RQe+zsCmCzJv2PAhR2JQYGXgmD0PIvP7HxFbyByv0oXMzYRZKEWIv3NrwJx7CJNPyiwlhqXpVNfYYxQyQLNJOjvQB3NOSSuZtUnlOvljHI1snUwdLeBy+Lesn3EMcQ4pglxxpg24U8fSfP5unjzcLphfu2T5TunWMmRpMzPFZ5PaFpO0CUidNNgLSLOhZo5d4S1Z9dEsx1raAQg4QxopWLCi7gBadkKZBZ6TRRXWdI4przHWuuXehky5JgLneoTUe2udbH7rMKLz7TofQORS7hVM82q9LRPnNk1MbOpuHVV+wtOm6aFWWhXnUMcqzPcuuexuzlzRrOvTfeH4IioAutSkp4BFs4kwflyfExfHZM/l4n8CaOhvWkd+JGvIpamcMXld7B9QqaI9QOE0DtTmWJuGahrrucmwrQ8PWoDnxwVLdpdrkWi9lT4q3YCK9s91plo9TR5HIMjgdEtBJB9DHduOl2wZthqQY1I9ZDCv46gC6DXLgspulGdZfJsA4zMwNwu/Akn3RLMMamnHATC3NJnBraVYvSEVB5CwnJU/gHeQ0mFg8/YBX76zAb+Ua88hNJ/ufIzsxFi/HKfhStkweLHpge2Pu8Hl07g/2+PgZsTtQDSC0/RygJ8tr80LKIeQBgFqDqD3ozONbtqsk2YWrUmFGNiycbKvGZlMODOBvlgZkBvLaX5pxPy/CCJKjeiOFRSxuan2wLTNDHdzbIi0g7MCMPlCULlTfp+Cvrjx+dcVc94IfkL1F0bKSul+D37liaJsB/D5wA+/NKFk91heqqctR09ZdwBTZP4+wjpsz3lz0rbowD/rtE0Z9Ib1XVcNJJaysQPTiLL2JaXrAZAuWVrXFCo3G/kmWzwpC5vz24buBX+Rt5beB/6sH3K5ROZLWb4Fv0NaBr8c/t2DP7UzfP16wS+nYqhMGukA4xjngvOD6Etjiw789evXorGM3wcmzqyuz3emXfLWA7taLS4AIwOe2B3zCPbv4LXAVZ3NtHq+myozlaArz0sCknzxXgIdGfjteY8E/MrI0q6pd+o4vak/me7Tsrp3AHbtN8rYfLLZYJc4WVt04G84aa2GMnUavkLQkO8Ms3KwxwFS1yzRG6cha+wvu+Axptks+E1mFy0yzFbWd9R2OWh03YHdXCbwSx07ut+CH5nZs/NGoul3gDywdeThLs7vcNoe+dIYwPqnrcUkbSIaf8O6tZjZdxBUIqzD+unOzecABUyV/X0qVPsXp6xtAxhL9x8p+BVHCvQVAv7afmD0oFeva34HkJdS5Z2mvVExw/baZzCwYd26Wu5Fs4k8enjm6ZsU9HGhGusjhb4XYF3IJmROjLjcwCx2k9aVt6I1MkfAZk0QI60Rymm9f+k88kaFMl17LOR0mHoD828LIJTVODIbd9IkvXyEELp+pZOO+PijTavVQ+oA86n5y/2pHl53m3zu2tIjhe7YnDfXs2g286XG9tbO3HwUPmy+Yd3aNDfFZoIvz2pmyZHWgZeavtYDCPsskP3VSuYu0vV4q4mRGbIk5vnKg1wO53JGM386APbkphD48xERAjgthc6XPA7zA+Ya7bGSxdQjfoe/d3p98QK03ZCrb63WTLrDOIikbVi7FltOOaXvqEWxiQD/5PXrUkTHAN/dv6KVqO4AAozOz1eSlGvujJwEco9zmmYhc++t7p0H/Fr3hYJfnbUO/tKxYuNUwO+8yZxmoeC39YO/fhs04FQPjeXDVKnjAOnelQPgMazD9qkn2Lr56WOWcOQ2EeBvPe2U+CIpIMespcsk+6AadF/NAew7Il1Gw/62tF7215vjT1du6/ci0YX5auCXA1FPd4RrwC8vbuoeY8CvZccLYMj7PdMhCwE/inQY8Nu20H0Z/HqocQBtIu6y/0izQEe36bZvOUpfGrv1jE3aCA5shAI1gNKpZdw+CSQlpZbvsD9y7+CdJoEflZvs6ub3lXlQ+W4vY2zwS1YBfwnU1AaaaNKIWGeA83kWAfxl71CC3+Yvyqiyv2mEkT0A289Iakvx4xATAf6OC89Kg8Ls0r5LTyBNjRQbPj2vypRDYsYBIjOl4zg5hYJdzmUmvqwwTfuZ8vS4dtsle7NhZSnbSCGU3613jAv+7Ovjg99UugR/TD5C8Kd984KfuFM/6R2r7G++91nJ9jIo3nHmmf0HLZJNBPgXPit2VTrAhQBJAB8vl5K8kQzS+MLYOSZs0VOf1Y0A9WAX6ZNNUF34YO3m9DhFB/w9+frKqzI/8kPqvV2LOygi84jBb+pvy50P/PG6beONYv8xzLC9vngqANvPmjzwJxLOXL9+LTactDaC3gxyoyZnNBKKTK8d00cVkbpJDWemZ3b1N21zL6JhRw1tQu+CDWnC7COGC3mCkd/cJvvht8t9tXAn0jGOwrjyl9JtOFM7RSazjSLUab5rTxOd3YY14/Em1Il8rpJeXbr5tOkO1HocQUOetjx7DHz6qL+ybTacuA5bJxzRASb4fvyLtm/L3i93wrxfL8ffvQNkQEm+7AAe/FyAMcX95dWD6ZhGtpn1VYXE3lkcmMcAP3iB4K9szwt+lOAv4vxAAj91wI8S/CjqUAF5X3oV/FLX4rp8nQtgF392GKDrdBh41fOfh6WwiQH/wgu26t3QSSy5O8XsS3YAmHwZoBbIfjKsnBiLPUoGZTGZVfQWJFGIEvyVXmDJwa/frSMUE1pSDmoTWkUaijqYc3f2AXXwlw4g7A+/r3TQ2l9uAzLbwKuevzS/cD4x4L/ohc8CkECBgkWtI4TcSn4mlx3o1YHMdmb/8aVPxxmY55/BLR1j0uCHlxLjgb/DJ+gFf60elfQS/OoAZTEV8C/IpL4MXHzuuUdYyMJsYr+Isn37Nnu3AOTxWvxCJoacgpCcH+UDI64MlBGWjpBz9MeN4tIZ8jfZJ1vmuxn0Ujr7qJlejtX131MeuQabZ6Hre+RYW9aoGV5m8i/qIoBSMKAMdcZ3FnnU1x5okXpTkW4HvLHtoI5ub6g8faU7+5zA3l/WIwAAL7no2Vj/tKf1HLi4NjHGP+OMU3DNNZcCMAwfLNMHz+ruXdRW/rDX/04+IQ18YfaVOt7vV+ZGqfHNvINh9Xl7AuTtRWF+871vbQ8gv2FVMn8EUsn8DJMXhslr9aik2zqgqKc1rcMo5u9pE2bg5RdeOOLAxbWJ/s7tVVddYhjE3Al1ggx+BZV7wXyh/y1wR0of9gBFAX593/48EZ/lAL8B35GAnycEfpjyYOtZ5kl16PuLzilPE/u6XLJ9O5bKJgr8F734QmzZsimDFEbHOzYPuQdAZmB79wisvULO1+8YzkkK3R9DqmNGfMqBbgn+0HWERQG/A/qRgd+lp3Kqqzpr9ailS1KRTx1gDHNOZ8o++aT1uPC008YrZBFsosAHgB9522viRnnzk5UySBwgS5NMUblHwNjSpxzI+kGvBbOUV+RFheEt+IElB78CWg7pAb89ZQZ6+rVy5I5VrQ/85T5bHpu8Y4Lfli/nv+ZFL1rAwd+9TRz4L3vF98Cv3QBya+WWj8ANRm4U+t+wfaOAzmDtlT7zgn90xGds8PNo8JO57MVm/g7QS/BbZ5Fjk/SRpi1vjdajVk+bvZZ3DHN5Gbj4WReMd+Ai2cSBf8aWjbjqBy8zdMS+IQFDHSJxkvwp9L8f/LLT5H3SR6RNjc0zqLuD3qrsWSHg76YZoLM/RU3bl+C3t6VapzK9uH9V8PfkteXI9a1/2lq8+LylCWOKTRz4AHD1tZcXYPJ/jqrQL38sy3vpU8b8pYwxwG9nekeBH3DHLxT8KPJMjvkLfpH85T49JjN/FeSmfLcPPn9N97vLNF9KP3jbK14x8WdsS1sS4L/gkguwZevmSsvHP426AKYFBYxe/sCAXcDfYfhC9+e1QPkYlUewjF4Hvw6CIfmOHPwdgNcAb40zcMYDf3dpgwM/8j7YYzCG5regnQf8lctwTmDHB9dcfHHlwidrSwJ8AHjnu9+QtTt8dAcGqJn55Y5a+VOTPgXIjfRxut8sdfDgx7zgxyKCf0EL25DTVwT4bV0AX+/Symsxf7b8l+y4CFsn/Na0mk1s5ra0F73k2fGKyxlSRCCkB/HS2nszvZemGYlTjgBwehkrdN41fhIh/6K5vHOP2eQDZH4RkPS0RQxZ8Shr+9FI6TG9SaUEN+tsS9JToZz1ZLtrnBneStqRvL3BnpPtyZE/KJUtJxv1ysLOBbuLN9c8nyUH+JnXvW6MzItvS8b4p2/diB940xXwVGQYG4VEUTbJSND9LpQJDXFmJudOyDOPD+oRn1qsX37ADjadk7RC/j6xUGcl7UiY38qUcZnflufqZL46s/vqt7hT5iUXbMfF55xdlrQktmTAB5CAnwHr/wSMgNypmvRR8Mr3VDbBg78b8szf6+lw3x34OZdrwS8/QDKW7AGcs0wa/HJMWKDsMa05EtxajzJ9HEvnWw5tL7akwH/hJRdiy1lPNwArdD5K8Hv9reAHm0iOYV+4O+t0fwf8lXT3o3UW/FwH/xFpfrM9FvhRSRsD/NIMQAK/yV8FP2x6twpq3LNdzdxjHNn+2hcv7aSVtSUFPgD81HXXdLUtMrAs+JXxS/AryHvAD2TwowtyjeaMEe6cD/xjyx6bbvJXwW9tAeCPCT3gZy97XH7T9O7UNm9Zn/JrrZ41S2W+68orR2SavC3Z4FbshS/ZgTwK9ftkUbEmF6/g0Of9O47DKbsMOtPLZME5M5Om5wEix9/radIQNg2syZXbfZ7XDnhlyRXGGfDadBn8SlptwDvGtnttSkrvvKhqRFFAt87sWxtFUT5h1HbNGLhk+0W4+NyzezIsjS0545+xdTOufsvLwA0pYzstb9i3pvstjeXBKjy9mWPzwBnpGJhjpVw4dh/F/Pm1hkcY6hyH+e0fxtv2SdRNjFedb0RnX/paK5OLbAWrVzioa+mY9Seuw6//0Ft6Mi2dLTnwAeCn3n0Ntpx1WqY5sEoXq887ur8z4PXSBci3tpwhzWMFfxftnIAbKIu5YwGBlXB/Ffz4LsFf1B0otq0Z/+2TIa4INsf41u/KGptW7mO/XXWM4hqYgbe94pXYumnp4/alLQvwT9+6Ef/svW8CN2ldtgWeEZYd3Q8g3ybkfOD+wW46RvOzcY7aGMIcYoFpLfcGlXTk9OwgpkyYPAbsKPKNtBLkBUPHDeoAXGrVh2VbtHUIKaeTv1KHUVXecOI6/NgVl43OuES2LMAHgNdfewmuevP3Ib+wMTM3OeY37M/smT8emMFTG+zWJI+Ug5xebs/H+nYnWVSwP06PrwEcJo192oJYvzCXrfR9k6E2yO2cE/VLq9WnRvSWu372+69cskcL57NlAz4AvPO6a7Fl22n5zVuOgTPTK3vLdvHpjpWWdnrf5HPaAK536EihBbK+DV/2RmkwwgnGBHbH7CVxZxfKXbXt/up6GTSyen3IB7DjzLPwo1dcPs7VLIktK/BP37oJP/3eN0fWHwl+YfW8XYvZucEu0GVvx/pwrF+CXc8Hk34ErO8cpwBmR+tb60NYDb0mnd13L3fMmevlFUUXzRI/y/LGcVYGfvnNb54n09LasgIfAF7/g5fgqre+vHjfYgF+cxdkyiUPLvvAz7CSx/YIjt3hHUQiSFaCLJj15a9AjdP8NbAY5+iVO33HFvvcIdnv8z7hFHdoPaavrd3XLfSBP6VfcuH2ZQ9flrbswAeAn3rPNdiyTaI8ySz4VeZ4tie7Px4EIPcMOTJkwcmu/L7wpnUSmEPHYn3jVLE+heNw4Rw1xyiLr1nhDOUldnoBt+1brYblWn6rKKv1qfz9+j9d/vBlaSsC+KefuQnvfO8bI+uTuf0d8BvAFzF8LzXsnw0xsksbGd5cIOu7NFuWrQ9QlzXolmHL6UVlz7bPnuROzRnK3oTNWeWYokz9LHqLKugBvP01r8bWCf+sz5HYigA+AFz5xktx9VtfEdvdrol14Jfvnl1tFKg+ucVd2WDYvRbeXCjrq7MYgCPv7gV7TduXvYCW0wf4Shn2Eiq73Hbfnx6j4J9H8hS24+yz8UtX/8DoTMtkKwb4APCT16WJLVCiywL8BYBLwM+n9wHfwY8Kb5aTWvOxvjPNVzpMLsf1Ms7JumWNtALJnezczWbO3D2Pr3IlmjPi/TzmuC2bT8Uf/ezPzFP55bMVBfwoed6UvlnwkzJ9nqX1vNWZ3BImVolkZQcboBXOgpzuAenvsBu8wixisxDh/tBmX/y+lrbQmVwU2UTu6D7rDKZ3MFfTBX2t3IqjMQNbN5+KD173rhUTs6/ZigI+ALz+TZfine97C/SWE3WlD7gjZebT++oA6A50qUx3cbwK69eosMbgMPlQ6TE4A7s2Czwv29es4hiVKnYYvDjE5+s4DMEkZ59kYP26dfjgde9alscJF2IrDvgA8I7rrsY73/dmE+IspU/6byF637yXR9PUKfxAtxPeHMX6dps9gEeGNs151Lg/vWo9iO3IE061yb7vnaLWmxg97/y8p5eRJv7gz717xYMeWKHAByL4f/q9I8APLwGsjq/pfSCDz0dazB21oB+X9ctyUqZ5Q5vGesFuHbNIc/nmsT4m7zB25Q/ogj9fiTmegf/042/DjjNOn79CK8BWLPCBBP7E/CxaX34kK1lH73Nd7/cOdNNd6w9vLoD1rVOY/fbTyZwCkeUgd0Ex/SKvY3J3NTXWrwxyTf6+82tzMfCeq6/CtRe/YAGVXF5b0cAHgHe8J4IfgGd/gbeRP/Ppfafz0zEd1p4A6/eFOLUefWnwaeWcgDuuJ90Ct6yiy84mD4rtSqXsaX/8ta/Gu173qkqtV66teOADBvyJ+WVFfEcGoZQE7PtpBWLhAIgHVcObGI/1dbvG5EBHco01yK2UZfdVt3usL7upVa8PjbI3XvpS/PIbVmasfpQdFcAHEvjf+yaVOvrqHSt9Cm3QlTx28Nu/jsdS41isbx1DjoNJRwb7uINc9KWPsgLRHbnDqWbZ76uhzXFRv2PbNvzKm64ZL/MKs6MG+EAJfsoDXQn1Sy9AkIT6INPKFFiWNd8Z47N+AdIOSxvHyeXVB7l2vzvWHlMCdB46rzH5AjsMZwzgzFNPxfXX/QtsWMGx+lG25A+bf7f2jvdcDQD4X7/5ZzGBMrcr4M1H3OTEgNEp9AH2BFjWh9rjQfmtagzYfYTI+pQf2sgPdjOI5WH4+DA6GOnHrMmDvNDPhEzGZPfLpRTfq8Zj7mdopWXT1kO8a1RR1111Jd79+teMyLHyjZirkdkVb5/48xvxb973PzMgAZR3jAtH0DEBUfpFmiY+9J6AzGayjIG8T46l+I4aNHI8UsQJmkfSAUJoch1ynvIYKQf5d5Nr6aaLCHKNDTxCpf+23UmTAW0uP/ZgpuMkAA3FtMZ0mjqiIuCszZvwqz/0Rrzquc8+klu2ouyoY3yxK994KUCE9//bP8bMvqdGAt4JE3kXJwBOg1hO6QR5b2dk9ci8nvVjsqFXw/raUximzvUxzA6zX3oMXz0vP9gcS2ZbMlHO16HqET1BoRS70stsv3THdvzGj74VZ66AB8UXw45axheb2XcAv/YLv4/PfeorVcADdiBs04TNE5KU9eM2mhGsTzYNbtuyvmV2x/oNOWavsXsf88Ps6yC2J62cAiFix/TSAzRFDxAdg/Heq6/Edd9/dEub0o564Ivd8qW78G9/8ffxyMO70AE8JMmDXuWPaHbK4wDdDwI3yQEgYE5ppgz9lcsmH+MlTnaI0HGQMUAPxDKlR5DzlUBvis8S+DRa5ljQn7V5E37zJ34ELzn/3MW5SSvIjhngA8D+fQfxgd/6K1z/h5/MibYXAJSdM9ub+LUBvOgABXEf6zfZWcZi/Qbak5Ss3wd2C/Jyf4flK45AQHxtOqJ+B0V21+/w+h4ALrvoQvznHzt2pE1pxxTwxb765Xvwq7/0v/HIzl2dfQp2M6gFYNg/fVHmTduG8XNP0APwisQJnR6g2wv0yZ3aINcBvxzUmr/xZE4EPhLw33fN9+Pnrjy6ZmIXasck8MV+97f/Gtf/4acws++AkTOZ8Z3E8SGPTt4sZSjNF0CjOyXj56hQLHwcuTMK+A70jXeIjsyx30kv04C/K3NE3297+ib8l3f8CF56DEqb0o5p4APA3XfuxPv//YfxlS9/A8rkvaBH1UFkrJBZncz+Ho2vAKQI8tIJxpA6NWcYm+1TXRT46Jc5Z5+6Ef/yDa/DS7efj7OOUWlT2jEPfLGP/PHn8D9+6y+xb+YpD3odzKJX1wOlxMn7qmwv24vI9lbfB60vPNvbz5LpS7YHsO0Zm/HzV70Gb71s+X6gYbls1QAfAB59ZDeu/6NP4y8/diNmZg56XW9Br5KCFFgazRFwNza9zvYLCWeOZHtAIzoLYnugKnPOPv3p+MVrXoe3XPK9k2rqFW+rCvhiMzOH8JWb78b1138WN998F1QCWYkygu3t975ozrKwvUnvDmqByy86H79wzWtx2QXnTbyNV7qtSuBbm5k5gA996HP44B//HfbOPDUa9IQxB7RHzvahALtje1QGtTVHMPIGBPzwFRfjF655DbadumnSzXnU2KoHvrWbb7kX13/4Btz0lTsxM3NQB72LNqAt5E8tVLlgtq+AXwH/fZfgF695DbZtPmVpGvAosinwK7Zv5gD+6uM34zOfux033RKjQUcmcVJeM2kVYpY8kTWK7e13zM/2256xGVdcdD6uuOiZuGz7M6eAH2FT4M9jN3/1Xnz6htvxmS/cgZ2PPuFCnU7ilD1BzQnGZftKrL62IvO5527B8849C1e+cAeed85Z2HbqFOjj2hT4C7SHH92NL996H3Y+9iR2PrYbN912Px569IleidMZ0MIAu2D9kWw/aHD5s5+J551zBi579vm4Ysd5OHnd2uVogmPCpsBfBNv31CHsfPRJ3HnfI7jzvkfw4GNP4uv3PYqHvv1k77ocq9nPPG2Tpm046WnYsG5tGkg3uPw55+OyZ5+Hyy+aRmIW06bAn6Dte+owHnrsCQDAhpMyO5912jS6stw2Bf7UVqUdVQ+bT21qi2VT4E9tVdoU+FNblTYF/tRWpU2BP7VVaVPgT21V2hT4U1uVNgX+1FalTYE/tVVpU+BPbVXaFPhTW5U2Bf7UVqVNgT+1VWlT4E9tVdoU+FNblTYF/tRWpU2BP7VVaVPgT21V2hT4U1uV9v8BhMZjOFMh90YAAAAASUVORK5CYII=;fontSize=18;" parent="44" vertex="1">
                    <mxGeometry y="34.99921568627451" width="194.26711084191388" height="187.10770292234272" as="geometry"/>
                </mxCell>
                <mxCell id="43" value="New Signal" style="text;html=1;strokeColor=none;fillColor=none;align=center;verticalAlign=middle;whiteSpace=wrap;rounded=0;fontSize=18;" parent="44" vertex="1">
                    <mxGeometry x="39.76660494564571" width="117.96679010870858" height="34.99921568627451" as="geometry"/>
                </mxCell>
                <mxCell id="56" style="edgeStyle=none;html=1;entryX=-0.032;entryY=0.348;entryDx=0;entryDy=0;entryPerimeter=0;strokeColor=default;fontSize=18;endArrow=classic;endFill=1;" parent="1" source="47" target="49" edge="1">
                    <mxGeometry relative="1" as="geometry"/>
                </mxCell>
                <mxCell id="47" value="Conversion to Irreps" style="rounded=1;whiteSpace=wrap;html=1;fontSize=18;" parent="1" vertex="1">
                    <mxGeometry x="1100" y="725" width="130" height="57.5" as="geometry"/>
                </mxCell>
                <mxCell id="48" value="" style="edgeStyle=none;html=1;strokeColor=default;fontSize=18;endArrow=classic;endFill=1;" parent="1" source="39" target="47" edge="1">
                    <mxGeometry relative="1" as="geometry"/>
                </mxCell>
                <mxCell id="51" value="" style="group;fontSize=18;" parent="1" vertex="1" connectable="0">
                    <mxGeometry x="1285" y="698.37" width="157.51" height="102.25" as="geometry"/>
                </mxCell>
                <mxCell id="49" value="" style="shape=image;verticalLabelPosition=bottom;labelBackgroundColor=default;verticalAlign=top;aspect=fixed;imageAspect=0;image=data:image/png,iVBORw0KGgoAAAANSUhEUgAAAxoAAAFwCAYAAAA/sA1HAAAAOXRFWHRTb2Z0d2FyZQBNYXRwbG90bGliIHZlcnNpb24zLjguMywgaHR0cHM6Ly9tYXRwbG90bGliLm9yZy/H5lhTAAAACXBIWXMAAA9hAAAPYQGoP6dpAAAIG0lEQVR4nO3ZIUqFURRGUZ+8ZhIMJhHnIGgTm2i1OQOn4BwMglMSxCEIFgfgDK7tBYuGLRfev1Y+4aubsxpjjB0AAIDQ7uwBAADA9hEaAABATmgAAAA5oQEAAOSEBgAAkBMaAABATmgAAAA5oQEAAOSEBgAAkFvPHgA/vbx/zZ7AQlzePsyewEIcXlzNnsBCfDxez54AGz4aAABATmgAAAA5oQEAAOSEBgAAkBMaAABATmgAAAA5oQEAAOSEBgAAkBMaAABATmgAAAA5oQEAAOSEBgAAkBMaAABATmgAAAA5oQEAAOSEBgAAkBMaAABATmgAAAA5oQEAAOSEBgAAkBMaAABATmgAAAA5oQEAAOSEBgAAkBMaAABATmgAAAA5oQEAAOSEBgAAkBMaAABATmgAAAA5oQEAAOSEBgAAkBMaAABATmgAAAA5oQEAAOSEBgAAkBMaAABATmgAAAA5oQEAAOSEBgAAkBMaAABATmgAAAA5oQEAAOSEBgAAkBMaAABATmgAAAA5oQEAAOSEBgAAkBMaAABATmgAAAA5oQEAAOSEBgAAkBMaAABATmgAAAA5oQEAAOSEBgAAkBMaAABATmgAAAA5oQEAAOSEBgAAkBMaAABATmgAAAA5oQEAAOSEBgAAkBMaAABATmgAAAA5oQEAAOSEBgAAkBMaAABATmgAAAA5oQEAAOSEBgAAkBMaAABATmgAAAA5oQEAAOSEBgAAkBMaAABATmgAAAA5oQEAAOSEBgAAkBMaAABATmgAAAA5oQEAAOSEBgAAkBMaAABATmgAAAA5oQEAAOSEBgAAkBMaAABATmgAAAA5oQEAAOSEBgAAkBMaAABATmgAAAA5oQEAAOSEBgAAkBMaAABATmgAAAA5oQEAAOSEBgAAkBMaAABATmgAAAA5oQEAAOSEBgAAkBMaAABATmgAAAA5oQEAAOSEBgAAkBMaAABATmgAAAA5oQEAAOSEBgAAkBMaAABATmgAAAA5oQEAAOSEBgAAkBMaAABATmgAAAA5oQEAAOSEBgAAkBMaAABATmgAAAA5oQEAAOSEBgAAkBMaAABATmgAAAA5oQEAAOSEBgAAkBMaAABATmgAAAA5oQEAAOSEBgAAkBMaAABATmgAAAA5oQEAAOSEBgAAkBMaAABATmgAAAA5oQEAAOSEBgAAkBMaAABATmgAAAA5oQEAAOSEBgAAkBMaAABATmgAAAA5oQEAAOSEBgAAkBMaAABATmgAAAA5oQEAAOSEBgAAkBMaAABATmgAAAC51RhjzB4BAABsFx8NAAAgJzQAAICc0AAAAHJCAwAAyAkNAAAgJzQAAICc0AAAAHJCAwAAyAkNAAAgJzQAAICc0AAAAHJCAwAAyAkNAAAgJzQAAICc0AAAAHJCAwAAyAkNAAAgJzQAAICc0AAAAHJCAwAAyAkNAAAgJzQAAICc0AAAAHJCAwAAyAkNAAAgJzQAAICc0AAAAHJCAwAAyAkNAAAgJzQAAICc0AAAAHJCAwAAyAkNAAAgJzQAAICc0AAAAHJCAwAAyAkNAAAgt/7r4d3p83/ugI37p5vZE1iIk+P92RNYiIODvdkTWIjXt8/ZE1iI87OjX298NAAAgJzQAAAAckIDAADICQ0AACAnNAAAgJzQAAAAckIDAADICQ0AACAnNAAAgJzQAAAAckIDAADICQ0AACAnNAAAgJzQAAAAckIDAADICQ0AACAnNAAAgJzQAAAAckIDAADICQ0AACAnNAAAgJzQAAAAckIDAADICQ0AACAnNAAAgJzQAAAAckIDAADICQ0AACAnNAAAgJzQAAAAckIDAADICQ0AACAnNAAAgJzQAAAAckIDAADICQ0AACAnNAAAgJzQAAAAckIDAADICQ0AACAnNAAAgJzQAAAAckIDAADICQ0AACAnNAAAgJzQAAAAckIDAADICQ0AACAnNAAAgJzQAAAAckIDAADICQ0AACAnNAAAgJzQAAAAckIDAADICQ0AACAnNAAAgJzQAAAAckIDAADICQ0AACAnNAAAgJzQAAAAckIDAADICQ0AACAnNAAAgJzQAAAAckIDAADICQ0AACAnNAAAgJzQAAAAckIDAADICQ0AACAnNAAAgJzQAAAAckIDAADICQ0AACAnNAAAgJzQAAAAckIDAADICQ0AACAnNAAAgJzQAAAAckIDAADICQ0AACAnNAAAgJzQAAAAckIDAADICQ0AACAnNAAAgJzQAAAAckIDAADICQ0AACAnNAAAgJzQAAAAckIDAADICQ0AACAnNAAAgJzQAAAAckIDAADICQ0AACAnNAAAgJzQAAAAckIDAADICQ0AACAnNAAAgJzQAAAAckIDAADICQ0AACAnNAAAgJzQAAAAckIDAADICQ0AACAnNAAAgJzQAAAAckIDAADICQ0AACAnNAAAgJzQAAAAckIDAADICQ0AACAnNAAAgJzQAAAAckIDAADICQ0AACAnNAAAgJzQAAAAckIDAADICQ0AACAnNAAAgJzQAAAAckIDAADICQ0AACAnNAAAgJzQAAAAckIDAADICQ0AACAnNAAAgJzQAAAAckIDAADICQ0AACAnNAAAgJzQAAAAckIDAADICQ0AACAnNAAAgJzQAAAAckIDAADICQ0AACAnNAAAgJzQAAAAckIDAADICQ0AACAnNAAAgJzQAAAAcqsxxpg9AgAA2C4+GgAAQE5oAAAAOaEBAADkhAYAAJATGgAAQE5oAAAAOaEBAADkhAYAAJATGgAAQO4bHzMa1kJyOBcAAAAASUVORK5CYII=;fontSize=18;" parent="51" vertex="1">
                    <mxGeometry y="29.25" width="157.51" height="73" as="geometry"/>
                </mxCell>
                <mxCell id="50" value="New Irreps" style="text;html=1;strokeColor=none;fillColor=none;align=center;verticalAlign=middle;whiteSpace=wrap;rounded=0;fontSize=18;" parent="51" vertex="1">
                    <mxGeometry x="28.1400000000001" width="101.24" height="30" as="geometry"/>
                </mxCell>
                <mxCell id="57" value="&lt;font style=&quot;font-size: 32px;&quot;&gt;Self-Interaction&lt;br&gt;&amp;nbsp;(`S_2`-MLP-Mixer)&lt;/font&gt;" style="text;strokeColor=none;fillColor=none;html=1;fontSize=18;fontStyle=1;verticalAlign=middle;align=center;" parent="1" vertex="1">
                    <mxGeometry x="75.37" y="595" width="126" height="40" as="geometry"/>
                </mxCell>
                <mxCell id="58" value="" style="endArrow=none;html=1;fontSize=18;" parent="1" edge="1">
                    <mxGeometry width="50" height="50" relative="1" as="geometry">
                        <mxPoint y="564" as="sourcePoint"/>
                        <mxPoint x="1575" y="564" as="targetPoint"/>
                    </mxGeometry>
                </mxCell>
                <mxCell id="59" value="" style="endArrow=none;html=1;fontSize=18;" parent="1" edge="1">
                    <mxGeometry width="50" height="50" relative="1" as="geometry">
                        <mxPoint y="300" as="sourcePoint"/>
                        <mxPoint x="1575" y="300" as="targetPoint"/>
                    </mxGeometry>
                </mxCell>
                <mxCell id="60" value="&lt;font style=&quot;font-size: 32px;&quot;&gt;Architecture&lt;/font&gt;" style="text;strokeColor=none;fillColor=none;html=1;fontSize=18;fontStyle=1;verticalAlign=middle;align=center;" parent="1" vertex="1">
                    <mxGeometry x="75.37" y="20" width="100" height="40" as="geometry"/>
                </mxCell>
                <mxCell id="63" value="" style="edgeStyle=none;html=1;fontSize=18;entryX=0;entryY=0.5;entryDx=0;entryDy=0;" parent="1" source="61" target="64" edge="1">
                    <mxGeometry relative="1" as="geometry">
                        <mxPoint x="414.47" y="150" as="targetPoint"/>
                    </mxGeometry>
                </mxCell>
                <mxCell id="73" value="" style="edgeStyle=none;html=1;fontSize=18;" parent="1" source="61" target="72" edge="1">
                    <mxGeometry relative="1" as="geometry"/>
                </mxCell>
                <mxCell id="61" value="&lt;span style=&quot;font-size: 18px;&quot;&gt;Periodic Graph&lt;/span&gt;" style="rounded=1;whiteSpace=wrap;html=1;fontSize=18;" parent="1" vertex="1">
                    <mxGeometry x="200" y="125" width="97.13" height="50" as="geometry"/>
                </mxCell>
                <mxCell id="115" style="edgeStyle=none;html=1;fontSize=32;endArrow=none;endFill=0;" edge="1" parent="1" source="64">
                    <mxGeometry relative="1" as="geometry">
                        <mxPoint x="499.9999999999999" y="150" as="targetPoint"/>
                    </mxGeometry>
                </mxCell>
                <mxCell id="64" value="&lt;font style=&quot;font-size: 18px;&quot;&gt;Message Passing&lt;/font&gt;" style="rounded=1;whiteSpace=wrap;html=1;fontSize=18;" parent="1" vertex="1">
                    <mxGeometry x="323.5" y="125" width="127.31" height="50" as="geometry"/>
                </mxCell>
                <mxCell id="79" value="" style="edgeStyle=none;html=1;fontSize=18;entryX=0.394;entryY=0.507;entryDx=0;entryDy=0;entryPerimeter=0;" parent="1" source="65" target="119" edge="1">
                    <mxGeometry relative="1" as="geometry">
                        <mxPoint x="739.9999999999925" y="150" as="targetPoint"/>
                    </mxGeometry>
                </mxCell>
                <mxCell id="65" value="&lt;font style=&quot;font-size: 18px;&quot;&gt;Self-Interaction&lt;/font&gt;" style="whiteSpace=wrap;html=1;rounded=1;fontSize=18;" parent="1" vertex="1">
                    <mxGeometry x="550" y="120" width="154.01" height="60" as="geometry"/>
                </mxCell>
                <mxCell id="68" value="" style="edgeStyle=none;html=1;fontSize=18;" parent="1" source="67" target="61" edge="1">
                    <mxGeometry relative="1" as="geometry"/>
                </mxCell>
                <mxCell id="67" value="&lt;font style=&quot;font-size: 18px;&quot;&gt;Crystal&lt;/font&gt;" style="rounded=1;whiteSpace=wrap;html=1;fontSize=18;" parent="1" vertex="1">
                    <mxGeometry x="75.00000000000003" y="125" width="74.63" height="50" as="geometry"/>
                </mxCell>
                <mxCell id="72" value="" style="shape=waypoint;sketch=0;size=6;pointerEvents=1;points=[];fillColor=default;resizable=0;rotatable=0;perimeter=centerPerimeter;snapToPoint=1;rounded=1;fontSize=18;" parent="1" vertex="1">
                    <mxGeometry x="238.56500000000005" y="200" width="20" height="20" as="geometry"/>
                </mxCell>
                <mxCell id="85" value="" style="edgeStyle=none;rounded=1;html=1;fontSize=18;entryX=0.375;entryY=0.517;entryDx=0;entryDy=0;entryPerimeter=0;" parent="1" source="119" target="84" edge="1">
                    <mxGeometry relative="1" as="geometry">
                        <mxPoint x="749.4574472340801" y="140.00010000889563" as="sourcePoint"/>
                    </mxGeometry>
                </mxCell>
                <mxCell id="93" value="" style="edgeStyle=none;rounded=1;html=1;fontSize=18;exitX=0.628;exitY=0.529;exitDx=0;exitDy=0;exitPerimeter=0;" parent="1" source="119" target="92" edge="1">
                    <mxGeometry relative="1" as="geometry">
                        <mxPoint x="759.000000000007" y="150" as="sourcePoint"/>
                    </mxGeometry>
                </mxCell>
                <mxCell id="86" value="" style="edgeStyle=none;rounded=1;html=1;fontSize=18;entryX=0.968;entryY=0.475;entryDx=0;entryDy=0;entryPerimeter=0;" parent="1" source="84" target="87" edge="1">
                    <mxGeometry relative="1" as="geometry">
                        <mxPoint x="325" y="85" as="targetPoint"/>
                    </mxGeometry>
                </mxCell>
                <mxCell id="84" value="" style="shape=waypoint;sketch=0;size=6;pointerEvents=1;points=[];fillColor=default;resizable=0;rotatable=0;perimeter=centerPerimeter;snapToPoint=1;fontSize=18;" parent="1" vertex="1">
                    <mxGeometry x="739" y="40" width="20" height="20" as="geometry"/>
                </mxCell>
                <mxCell id="89" value="" style="edgeStyle=none;rounded=1;html=1;fontSize=18;entryX=0.5;entryY=0;entryDx=0;entryDy=0;" parent="1" source="87" target="61" edge="1">
                    <mxGeometry relative="1" as="geometry">
                        <mxPoint x="250" y="125" as="targetPoint"/>
                    </mxGeometry>
                </mxCell>
                <mxCell id="87" value="" style="shape=waypoint;sketch=0;size=6;pointerEvents=1;points=[];fillColor=default;resizable=0;rotatable=0;perimeter=centerPerimeter;snapToPoint=1;rounded=1;fontSize=18;" parent="1" vertex="1">
                    <mxGeometry x="238.56500000000005" y="40" width="20" height="20" as="geometry"/>
                </mxCell>
                <mxCell id="91" value="GNN Layer" style="swimlane;startSize=0;fontSize=18;fillColor=#B4CAE9;strokeColor=#6c8ebf;fillStyle=solid;rounded=1;shadow=0;glass=0;gradientColor=none;verticalAlign=bottom;strokeWidth=3;" parent="1" vertex="1">
                    <mxGeometry x="307" y="100" width="425" height="150" as="geometry"/>
                </mxCell>
                <mxCell id="113" style="edgeStyle=none;html=1;fontSize=32;endArrow=none;endFill=0;" edge="1" parent="91" source="80">
                    <mxGeometry relative="1" as="geometry">
                        <mxPoint x="191" y="50" as="targetPoint"/>
                    </mxGeometry>
                </mxCell>
                <mxCell id="80" value="Residual Linear Layer" style="rounded=1;whiteSpace=wrap;html=1;fontSize=18;" parent="91" vertex="1">
                    <mxGeometry x="131.5" y="87.5" width="119" height="45" as="geometry"/>
                </mxCell>
                <mxCell id="117" value="" style="shape=orEllipse;perimeter=ellipsePerimeter;whiteSpace=wrap;html=1;backgroundOutline=1;fontSize=32;" vertex="1" parent="91">
                    <mxGeometry x="183.5" y="42.5" width="15" height="15" as="geometry"/>
                </mxCell>
                <mxCell id="95" value="" style="edgeStyle=none;rounded=1;html=1;fontSize=18;" parent="1" source="92" target="94" edge="1">
                    <mxGeometry relative="1" as="geometry"/>
                </mxCell>
                <mxCell id="92" value="Readout MLP" style="rounded=1;whiteSpace=wrap;html=1;fontSize=18;" parent="1" vertex="1">
                    <mxGeometry x="788.5" y="120" width="120" height="60" as="geometry"/>
                </mxCell>
                <mxCell id="94" value="Energy&lt;br style=&quot;font-size: 18px;&quot;&gt;Force&lt;br style=&quot;font-size: 18px;&quot;&gt;Stress" style="whiteSpace=wrap;html=1;fontSize=18;rounded=1;" parent="1" vertex="1">
                    <mxGeometry x="940" y="110" width="135" height="80" as="geometry"/>
                </mxCell>
                <mxCell id="99" value="" style="edgeStyle=none;rounded=1;html=1;fontSize=18;" parent="1" source="96" target="98" edge="1">
                    <mxGeometry relative="1" as="geometry"/>
                </mxCell>
                <mxCell id="96" value="Sum Over Incoming Messages" style="whiteSpace=wrap;html=1;fontSize=18;rounded=1;" parent="1" vertex="1">
                    <mxGeometry x="1175" y="403" width="120" height="70.5" as="geometry"/>
                </mxCell>
                <mxCell id="101" value="" style="edgeStyle=none;rounded=1;html=1;fontSize=18;" parent="1" source="98" target="100" edge="1">
                    <mxGeometry relative="1" as="geometry"/>
                </mxCell>
                <mxCell id="98" value="Linear Projection" style="whiteSpace=wrap;html=1;fontSize=18;rounded=1;" parent="1" vertex="1">
                    <mxGeometry x="1322.51" y="410.5" width="120" height="60" as="geometry"/>
                </mxCell>
                <mxCell id="100" value="New Node Features" style="whiteSpace=wrap;html=1;fontSize=18;rounded=1;" parent="1" vertex="1">
                    <mxGeometry x="1467" y="408.25" width="104" height="64.5" as="geometry"/>
                </mxCell>
                <mxCell id="112" value="" style="edgeStyle=none;html=1;fontSize=18;endArrow=none;exitX=0.619;exitY=0.593;exitDx=0;exitDy=0;exitPerimeter=0;" edge="1" parent="1" source="72" target="80">
                    <mxGeometry relative="1" as="geometry">
                        <mxPoint x="259.81500000000005" y="217" as="sourcePoint"/>
                        <mxPoint x="750" y="217" as="targetPoint"/>
                    </mxGeometry>
                </mxCell>
                <mxCell id="116" style="edgeStyle=none;html=1;entryX=0;entryY=0.5;entryDx=0;entryDy=0;fontSize=32;endArrow=classic;endFill=1;startArrow=none;" edge="1" parent="1" source="117" target="65">
                    <mxGeometry relative="1" as="geometry">
                        <mxPoint x="498" y="150" as="sourcePoint"/>
                    </mxGeometry>
                </mxCell>
                <mxCell id="118" value="" style="edgeStyle=none;html=1;entryX=0;entryY=0.5;entryDx=0;entryDy=0;fontSize=32;endArrow=none;endFill=1;" edge="1" parent="1" target="117">
                    <mxGeometry relative="1" as="geometry">
                        <mxPoint x="498" y="150" as="sourcePoint"/>
                        <mxPoint x="549.9999999999999" y="150" as="targetPoint"/>
                    </mxGeometry>
                </mxCell>
                <mxCell id="119" value="" style="shape=waypoint;sketch=0;fillStyle=solid;size=6;pointerEvents=1;points=[];fillColor=none;resizable=0;rotatable=0;perimeter=centerPerimeter;snapToPoint=1;fontSize=32;" vertex="1" parent="1">
                    <mxGeometry x="739" y="140" width="20" height="20" as="geometry"/>
                </mxCell>
            </root>
        </mxGraphModel>
    </diagram>
</mxfile>